<svg width="200" height="200" viewBox="0 0 200 200" fill="none" xmlns="http://www.w3.org/2000/svg">
<rect width="200" height="200" rx="11.2546" fill="url(#paint0_linear_275_498)"/>
<path d="M99.7809 68.8637C92.54 68.8637 86.6617 63.0372 86.6617 55.8481C86.6617 48.6624 92.54 42.8359 99.7809 42.8359C107.022 42.8359 112.9 48.6624 112.9 55.8481C112.9 63.0389 107.023 68.8637 99.7809 68.8637ZM135.282 129.544C132.344 130.387 129.341 128.904 128.561 126.216L118.519 91.1464L113.619 91.1398L129.676 147.094H69.856L85.9127 91.1398L81.0058 91.1464L70.9595 126.216C70.1904 128.906 67.1844 130.387 64.2503 129.544C61.3094 128.702 59.4553 126.13 60.4417 122.772L70.7756 86.7929C74.9034 72.4097 86.9393 72.8611 86.9393 72.8611H112.593C112.593 72.8611 124.63 72.4097 128.761 86.7929L139.087 122.772C140.071 126.13 138.219 128.702 135.282 129.544ZM99.8445 97.6584C90.9518 97.6584 83.7443 104.863 83.7443 113.754C83.7443 121.832 89.6962 128.525 97.4587 129.676V134.092H92.6153V138.912H97.4587V143.75H102.277V138.912H107.117V134.092H102.277V129.67C106.081 129.089 109.551 127.163 112.058 124.243C114.564 121.323 115.941 117.602 115.94 113.754C115.94 111.64 115.524 109.547 114.716 107.594C113.907 105.641 112.722 103.866 111.228 102.372C109.733 100.877 107.959 99.6914 106.006 98.8827C104.053 98.074 101.958 97.658 99.8445 97.6584ZM99.7626 124.768C96.7837 124.768 93.9269 123.585 91.8206 121.478C89.7142 119.372 88.5309 116.515 88.5309 113.536C88.5309 110.557 89.7142 107.701 91.8206 105.594C93.9269 103.488 96.7837 102.305 99.7626 102.305C101.237 102.305 102.698 102.595 104.06 103.16C105.423 103.724 106.661 104.551 107.704 105.594C108.747 106.637 109.574 107.875 110.138 109.238C110.702 110.601 110.993 112.061 110.993 113.536C110.993 115.011 110.703 116.472 110.139 117.834C109.574 119.197 108.747 120.436 107.704 121.479C106.662 122.522 105.423 123.349 104.061 123.913C102.698 124.478 101.237 124.768 99.7626 124.768Z" fill="white"/>
<defs>
<linearGradient id="paint0_linear_275_498" x1="183.655" y1="-4.37134e-06" x2="-29.1532" y2="117.821" gradientUnits="userSpaceOnUse">
<stop offset="0.035429" stop-color="#0E478E"/>
<stop offset="1" stop-color="#072142"/>
</linearGradient>
</defs>
</svg>
