<svg width="155" height="176" viewBox="0 0 155 176" fill="none" xmlns="http://www.w3.org/2000/svg">
<path d="M47.1333 80.8C38.2044 80.8 29.6411 77.253 23.3274 70.9393C17.0137 64.6255 13.4667 56.0623 13.4667 47.1333V20.2C13.4667 18.4142 14.1761 16.7016 15.4388 15.4388C16.7016 14.1761 18.4142 13.4667 20.2 13.4667H26.9333C28.7191 13.4667 30.4318 12.7573 31.6945 11.4945C32.9573 10.2318 33.6667 8.51912 33.6667 6.73333C33.6667 4.94754 32.9573 3.23489 31.6945 1.97215C30.4318 0.709402 28.7191 0 26.9333 0H20.2C14.8426 0 9.70468 2.12821 5.91644 5.91644C2.12821 9.70468 0 14.8426 0 20.2V47.1333C0.00865516 54.7402 1.8636 62.2313 5.40552 68.9633C8.94744 75.6953 14.0705 81.467 20.3347 85.7827C26.3592 91.0836 31.2441 97.5531 34.6933 104.799C38.1425 112.044 40.0839 119.915 40.4 127.933C40.4 140.434 45.3658 152.422 54.205 161.262C63.0443 170.101 75.0328 175.067 87.5333 175.067C100.034 175.067 112.022 170.101 120.862 161.262C129.701 152.422 134.667 140.434 134.667 127.933V120.257C141.014 118.618 146.546 114.721 150.225 109.295C153.904 103.87 155.478 97.2887 154.652 90.7855C153.826 84.2824 150.657 78.3037 145.738 73.9702C140.819 69.6367 134.489 67.2459 127.933 67.2459C121.378 67.2459 115.048 69.6367 110.129 73.9702C105.21 78.3037 102.041 84.2824 101.215 90.7855C100.389 97.2887 101.963 103.87 105.642 109.295C109.321 114.721 114.853 118.618 121.2 120.257V127.933C121.2 136.862 117.653 145.426 111.339 151.739C105.026 158.053 96.4623 161.6 87.5333 161.6C78.6044 161.6 70.0411 158.053 63.7274 151.739C57.4137 145.426 53.8667 136.862 53.8667 127.933C54.1997 119.905 56.1622 112.028 59.6348 104.782C63.1074 97.5359 68.0176 91.0717 74.0667 85.7827C80.306 81.452 85.4028 75.6738 88.9208 68.9427C92.4388 62.2117 94.2731 54.7283 94.2667 47.1333V20.2C94.2667 14.8426 92.1385 9.70468 88.3502 5.91644C84.562 2.12821 79.424 0 74.0667 0H67.3333C65.5475 0 63.8349 0.709402 62.5721 1.97215C61.3094 3.23489 60.6 4.94754 60.6 6.73333C60.6 8.51912 61.3094 10.2318 62.5721 11.4945C63.8349 12.7573 65.5475 13.4667 67.3333 13.4667H74.0667C75.8525 13.4667 77.5651 14.1761 78.8279 15.4388C80.0906 16.7016 80.8 18.4142 80.8 20.2V47.1333C80.8 51.5545 79.9292 55.9324 78.2373 60.017C76.5454 64.1016 74.0655 67.813 70.9393 70.9393C67.813 74.0655 64.1016 76.5454 60.017 78.2373C55.9324 79.9292 51.5545 80.8 47.1333 80.8ZM127.933 107.733C124.362 107.733 120.936 106.315 118.411 103.789C115.885 101.264 114.467 97.8382 114.467 94.2667C114.467 90.6951 115.885 87.2698 118.411 84.7443C120.936 82.2188 124.362 80.8 127.933 80.8C131.505 80.8 134.93 82.2188 137.456 84.7443C139.981 87.2698 141.4 90.6951 141.4 94.2667C141.4 97.8382 139.981 101.264 137.456 103.789C134.93 106.315 131.505 107.733 127.933 107.733Z" fill="#1E1E1E"/>
</svg>
