<svg width="200" height="200" viewBox="0 0 200 200" fill="none" xmlns="http://www.w3.org/2000/svg">
<rect width="200" height="200" rx="11.2546" fill="url(#paint0_linear_275_512)"/>
<path d="M112.004 62.1918C110.592 57.0795 112.528 50.5505 116.274 46.8046C118.655 44.4225 121.886 43.084 125.254 43.0835C128.622 43.083 131.853 44.4206 134.235 46.8021C136.617 49.1835 137.956 52.4137 137.956 55.782C137.956 59.1503 136.619 62.3809 134.237 64.763C136.62 62.3816 139.85 61.044 143.218 61.0444C146.587 61.0449 149.817 62.3834 152.198 64.7655C154.58 67.1476 155.917 70.3782 155.917 73.7465C155.916 77.1148 154.578 80.345 152.196 82.7265C148.45 86.4724 141.921 88.4135 136.809 87.0018C134.106 86.2506 130.834 86.1296 128.848 88.111L124.603 92.3611L111.066 94.4433V91.7208C111.066 91.1215 110.924 90.5308 110.651 89.9972C110.379 89.4637 109.983 89.0026 109.497 88.652C109.011 88.3014 108.448 88.0714 107.856 87.9808C107.264 87.8902 106.658 87.9418 106.09 88.1311L100.368 90.0369V80.6695L110.894 70.1576C112.876 68.1712 112.755 64.8991 112.004 62.1918ZM92.805 88.232L82.157 98.8951C80.1706 100.876 76.8985 100.755 74.1912 100.004C69.084 98.5926 62.555 100.534 58.809 104.28C56.5155 106.678 55.252 109.879 55.2889 113.198C55.3258 116.516 56.6602 119.688 59.0066 122.035C61.3529 124.382 64.5247 125.718 67.8432 125.756C71.1617 125.794 74.3632 124.531 76.7624 122.238C74.381 124.62 73.0434 127.851 73.0438 131.219C73.0443 134.587 74.3828 137.818 76.7649 140.199C79.147 142.58 82.3776 143.918 85.7459 143.918C89.1143 143.917 92.3444 142.579 94.7259 140.196C98.4718 136.45 100.413 129.922 99.0012 124.809C98.25 122.107 98.129 118.835 100.11 116.848L115.558 101.401L107.859 102.586C107.321 102.668 106.77 102.634 106.246 102.484C105.722 102.335 105.237 102.073 104.823 101.719C104.409 101.364 104.077 100.924 103.849 100.428C103.622 99.9333 103.504 99.3947 103.503 98.8497V96.9641L97.7862 98.8699C97.2177 99.0601 96.6122 99.1124 96.0196 99.0226C95.4269 98.9328 94.8641 98.7033 94.3776 98.3532C93.891 98.0031 93.4947 97.5423 93.2213 97.0089C92.9479 96.4755 92.8052 95.8847 92.805 95.2853V88.232Z" fill="white"/>
<defs>
<linearGradient id="paint0_linear_275_512" x1="183.655" y1="-4.37134e-06" x2="-29.1532" y2="117.821" gradientUnits="userSpaceOnUse">
<stop offset="0.035429" stop-color="#0E478E"/>
<stop offset="1" stop-color="#072142"/>
</linearGradient>
</defs>
</svg>
