<svg width="50" height="50" viewBox="0 0 50 50" fill="none" xmlns="http://www.w3.org/2000/svg">
<rect width="50" height="50" rx="12" fill="#A9E0FD"/>
<g clip-path="url(#clip0_232_130)">
<path d="M21.25 11.875C21.4986 11.875 21.7371 11.9738 21.9129 12.1496C22.0887 12.3254 22.1875 12.5639 22.1875 12.8125V13.75H25.9375C26.6834 13.75 27.3988 14.0463 27.9262 14.5738C28.4537 15.1012 28.75 15.8166 28.75 16.5625V17.6556C28.5275 17.7344 28.3169 17.8444 28.1181 17.9856C27.6681 18.3044 27.3306 18.7544 27.1244 19.3187L26.4681 21.3287C26.3579 21.6608 26.1717 21.9625 25.9244 22.21C25.6806 22.4556 25.3787 22.6619 25.0787 22.7556L23.0331 23.4119C22.6638 23.5423 22.3275 23.7521 22.0479 24.0265C21.7684 24.3009 21.5523 24.6332 21.415 25H16.5625C15.8166 25 15.1012 24.7037 14.5738 24.1762C14.0463 23.6488 13.75 22.9334 13.75 22.1875V16.5625C13.75 15.8166 14.0463 15.1012 14.5738 14.5738C15.1012 14.0463 15.8166 13.75 16.5625 13.75H20.3125V12.8125C20.3125 12.5639 20.4113 12.3254 20.5871 12.1496C20.7629 11.9738 21.0014 11.875 21.25 11.875ZM23.0687 28.465C22.6738 28.3334 22.3158 28.1097 22.0244 27.8125H14.6875C13.9416 27.8125 13.2262 28.1088 12.6988 28.6363C12.1713 29.1637 11.875 29.8791 11.875 30.625V31.2812C11.875 33.7281 13 35.5 14.7887 36.6119C16.5231 37.69 18.8313 38.125 21.25 38.125C23.6819 38.125 25.99 37.6919 27.7225 36.6119C28.1175 36.3681 28.4762 36.0912 28.7987 35.7812C28.7033 35.2761 28.7675 34.7538 28.9825 34.2869C28.6825 34.2119 28.4012 34.0806 28.1388 33.8931C27.6929 33.5666 27.3531 33.116 27.1619 32.5975L26.4869 30.55C26.3181 30.1187 26.1494 29.875 25.9431 29.6687C25.6913 29.4256 25.3901 29.2395 25.06 29.1231L23.0687 28.465ZM18.4375 20.7812C18.8105 20.7812 19.1681 20.6331 19.4319 20.3694C19.6956 20.1056 19.8438 19.748 19.8438 19.375C19.8438 19.002 19.6956 18.6444 19.4319 18.3806C19.1681 18.1169 18.8105 17.9688 18.4375 17.9688C18.0645 17.9688 17.7069 18.1169 17.4431 18.3806C17.1794 18.6444 17.0312 19.002 17.0312 19.375C17.0312 19.748 17.1794 20.1056 17.4431 20.3694C17.7069 20.6331 18.0645 20.7812 18.4375 20.7812ZM25.4688 19.375C25.4688 19.002 25.3206 18.6444 25.0569 18.3806C24.7931 18.1169 24.4355 17.9688 24.0625 17.9688C23.6895 17.9688 23.3319 18.1169 23.0681 18.3806C22.8044 18.6444 22.6562 19.002 22.6562 19.375C22.6562 19.748 22.8044 20.1056 23.0681 20.3694C23.3319 20.6331 23.6895 20.7812 24.0625 20.7812C24.4355 20.7812 24.7931 20.6331 25.0569 20.3694C25.3206 20.1056 25.4688 19.748 25.4688 19.375ZM30.3962 19.9038L31.0487 21.9119C31.2511 22.5227 31.5935 23.0777 32.0487 23.5325C32.5038 23.9873 33.0591 24.3293 33.67 24.5312L35.68 25.1837L35.7194 25.195C35.8743 25.2495 36.0084 25.3508 36.1033 25.4848C36.1982 25.6188 36.2491 25.7789 36.2491 25.9431C36.2491 26.1073 36.1982 26.2675 36.1033 26.4015C36.0084 26.5355 35.8743 26.6367 35.7194 26.6913L33.7113 27.3438C33.1 27.5454 32.5444 27.8873 32.0889 28.3422C31.6334 28.797 31.2907 29.3521 31.0881 29.9631L30.4356 31.9694C30.3811 32.1243 30.2799 32.2584 30.1459 32.3533C30.0118 32.4482 29.8517 32.4991 29.6875 32.4991C29.5233 32.4991 29.3632 32.4482 29.2291 32.3533C29.0951 32.2584 28.9939 32.1243 28.9394 31.9694L28.2869 29.9631C28.0524 29.2528 27.6292 28.6196 27.0625 28.1313C26.6527 27.7755 26.1767 27.504 25.6619 27.3325L23.6519 26.68C23.497 26.6255 23.3629 26.5242 23.268 26.3902C23.1731 26.2562 23.1221 26.0961 23.1221 25.9319C23.1221 25.7677 23.1731 25.6075 23.268 25.4735C23.3629 25.3395 23.497 25.2383 23.6519 25.1837L25.6619 24.5312C26.2655 24.3241 26.8129 23.9798 27.2609 23.5252C27.7089 23.0707 28.0454 22.5185 28.2437 21.9119L28.8962 19.9056C28.9504 19.7501 29.0516 19.6153 29.1858 19.5199C29.32 19.4244 29.4806 19.3732 29.6453 19.3732C29.81 19.3732 29.9706 19.4244 30.1048 19.5199C30.239 19.6153 30.3402 19.7501 30.3944 19.9056M39.5912 34.7762L38.1569 34.3112C37.7206 34.1662 37.324 33.9217 36.9986 33.5969C36.6731 33.2721 36.4278 32.876 36.2819 32.44L35.8169 31.0056C35.7781 30.8949 35.7058 30.7989 35.6101 30.731C35.5143 30.6631 35.3999 30.6267 35.2825 30.6267C35.1651 30.6267 35.0507 30.6631 34.9549 30.731C34.8592 30.7989 34.7869 30.8949 34.7481 31.0056L34.2794 32.44C34.1367 32.8726 33.8962 33.2665 33.5765 33.591C33.2569 33.9156 32.8667 34.162 32.4362 34.3112L31.0019 34.7762C30.9193 34.8056 30.8447 34.8537 30.7838 34.9168C30.723 34.9798 30.6775 35.0561 30.651 35.1396C30.6245 35.2231 30.6176 35.3116 30.631 35.3982C30.6444 35.4848 30.6776 35.5671 30.7281 35.6388C30.7956 35.7325 30.8913 35.8075 31.0019 35.845L32.4362 36.3119C32.8734 36.4576 33.2704 36.7034 33.5959 37.0295C33.9214 37.3557 34.1664 37.7532 34.3112 38.1906L34.7762 39.6231C34.8151 39.7339 34.8873 39.8298 34.9831 39.8977C35.0788 39.9656 35.1933 40.0021 35.3106 40.0021C35.428 40.0021 35.5424 39.9656 35.6382 39.8977C35.7339 39.8298 35.8062 39.7339 35.845 39.6231L36.3119 38.1906C36.4573 37.7545 36.7023 37.3581 37.0274 37.033C37.3525 36.7079 37.7488 36.463 38.185 36.3175L39.6194 35.8525C39.7301 35.8137 39.8261 35.7414 39.894 35.6457C39.9619 35.5499 39.9983 35.4355 39.9983 35.3181C39.9983 35.2008 39.9619 35.0863 39.894 34.9906C39.8261 34.8948 39.7301 34.8226 39.6194 34.7838L39.5912 34.7762Z" fill="url(#paint0_radial_232_130)"/>
</g>
<defs>
<radialGradient id="paint0_radial_232_130" cx="0" cy="0" r="1" gradientUnits="userSpaceOnUse" gradientTransform="translate(25.9367 25.9385) rotate(90) scale(14.0635 14.0617)">
<stop stop-color="#062142"/>
<stop offset="0.5" stop-color="#0B3B75"/>
<stop offset="1" stop-color="#1055A8"/>
</radialGradient>
<clipPath id="clip0_232_130">
<rect width="30" height="30" fill="white" transform="translate(10 10)"/>
</clipPath>
</defs>
</svg>
