<svg width="23" height="20" viewBox="0 0 23 20" fill="none" xmlns="http://www.w3.org/2000/svg">
<g clip-path="url(#clip0_191_299)">
<path d="M11.5 7H7.75C7.62568 7 7.50645 7.04939 7.41854 7.13729C7.33064 7.2252 7.28125 7.34443 7.28125 7.46875C7.28125 7.59307 7.33064 7.7123 7.41854 7.80021C7.50645 7.88811 7.62568 7.9375 7.75 7.9375H11.5C11.6243 7.9375 11.7435 7.88811 11.8315 7.80021C11.9194 7.7123 11.9688 7.59307 11.9688 7.46875C11.9688 7.34443 11.9194 7.2252 11.8315 7.13729C11.7435 7.04939 11.6243 7 11.5 7ZM11.5 9.21875H7.75C7.68844 9.21875 7.62749 9.23087 7.57062 9.25443C7.51375 9.27799 7.46207 9.31252 7.41854 9.35604C7.37502 9.39957 7.34049 9.45125 7.31693 9.50812C7.29337 9.56499 7.28125 9.62594 7.28125 9.6875C7.28125 9.74906 7.29337 9.81001 7.31693 9.86688C7.34049 9.92375 7.37502 9.97543 7.41854 10.019C7.46207 10.0625 7.51375 10.097 7.57062 10.1206C7.62749 10.1441 7.68844 10.1563 7.75 10.1563H11.5C11.5616 10.1563 11.6225 10.1441 11.6794 10.1206C11.7363 10.097 11.7879 10.0625 11.8315 10.019C11.875 9.97543 11.9095 9.92375 11.9331 9.86688C11.9566 9.81001 11.9688 9.74906 11.9688 9.6875C11.9688 9.62594 11.9566 9.56499 11.9331 9.50812C11.9095 9.45125 11.875 9.39957 11.8315 9.35604C11.7879 9.31252 11.7363 9.27799 11.6794 9.25443C11.6225 9.23087 11.5616 9.21875 11.5 9.21875ZM9.94375 11.4375H7.75C7.62568 11.4375 7.50645 11.4869 7.41854 11.5748C7.33064 11.6627 7.28125 11.7819 7.28125 11.9063C7.28125 12.0306 7.33064 12.1498 7.41854 12.2377C7.50645 12.3256 7.62568 12.375 7.75 12.375H9.94375C10.0681 12.375 10.1873 12.3256 10.2752 12.2377C10.3631 12.1498 10.4125 12.0306 10.4125 11.9063C10.4125 11.7819 10.3631 11.6627 10.2752 11.5748C10.1873 11.4869 10.0681 11.4375 9.94375 11.4375Z" fill="#1E1E1E"/>
<path d="M9.3625 15.1252H6.1875C6.10462 15.1252 6.02513 15.0923 5.96653 15.0337C5.90792 14.9751 5.875 14.8956 5.875 14.8127V5.43772C5.875 5.35484 5.90792 5.27535 5.96653 5.21675C6.02513 5.15814 6.10462 5.12522 6.1875 5.12522H14.3125C14.3954 5.12522 14.4749 5.15814 14.5335 5.21675C14.5921 5.27535 14.625 5.35484 14.625 5.43772V6.16272H15.7938C16.0432 6.17367 16.2859 6.24671 16.5 6.37522V4.18772C16.5 3.93908 16.4012 3.70062 16.2254 3.52481C16.0496 3.34899 15.8111 3.25022 15.5625 3.25022H12.4375C12.4113 3.24878 12.3858 3.24126 12.363 3.22824C12.3402 3.21522 12.3208 3.19707 12.3062 3.17522C12.0952 2.81757 11.7946 2.52115 11.434 2.31522C11.0733 2.10929 10.6653 2.00098 10.25 2.00098C9.83474 2.00098 9.42665 2.10929 9.06604 2.31522C8.70544 2.52115 8.40478 2.81757 8.19375 3.17522C8.17921 3.19707 8.15978 3.21522 8.13699 3.22824C8.11421 3.24126 8.0887 3.24878 8.0625 3.25022H4.9375C4.68886 3.25022 4.4504 3.34899 4.27459 3.52481C4.09877 3.70062 4 3.93908 4 4.18772V16.0627C4 16.3114 4.09877 16.5498 4.27459 16.7256C4.4504 16.9014 4.68886 17.0002 4.9375 17.0002H10.1187C9.68487 16.5209 9.41934 15.913 9.3625 15.269C9.35974 15.2211 9.35974 15.1731 9.3625 15.1252Z" fill="#1E1E1E"/>
<path d="M18.4687 13.7438L16.2625 11.3751V7.7251C16.2608 7.60128 16.2109 7.48299 16.1234 7.39543C16.0358 7.30787 15.9175 7.25797 15.7937 7.25635H13.575C13.4506 7.25635 13.3314 7.30573 13.2435 7.39364C13.1556 7.48155 13.1062 7.60078 13.1062 7.7251V11.3751L10.875 13.7438C10.7966 13.8405 10.7256 13.9429 10.6625 14.0501C10.6612 14.073 10.6612 14.0959 10.6625 14.1188C10.612 14.2106 10.5701 14.3068 10.5375 14.4063C10.5413 14.4164 10.5413 14.4275 10.5375 14.4376C10.4022 14.9014 10.4468 15.3991 10.6625 15.8313V15.8688C10.7079 15.9562 10.7601 16.0397 10.8187 16.1188L10.8687 16.1938C10.9436 16.2812 11.0251 16.3627 11.1125 16.4376V16.4751C11.4644 16.7654 11.9062 16.9245 12.3625 16.9251H16.9062C17.4212 16.9343 17.9193 16.7414 18.2937 16.3876C18.4832 16.2134 18.636 16.0032 18.7433 15.7692C18.8506 15.5353 18.9102 15.2823 18.9187 15.0251C18.9187 15.0251 18.9187 14.9751 18.9187 14.9438C18.9092 14.5044 18.7505 14.0812 18.4687 13.7438ZM14.0437 11.5876V8.19385H15.325V11.5876C15.3246 11.7077 15.3692 11.8237 15.45 11.9126L17.025 13.5813H12.3437L13.9125 11.9126C13.995 11.8243 14.0418 11.7085 14.0437 11.5876Z" fill="#1E1E1E"/>
</g>
<defs>
<clipPath id="clip0_191_299">
<rect width="15" height="15" fill="white" transform="translate(4 2)"/>
</clipPath>
</defs>
</svg>
