<svg width="200" height="200" viewBox="0 0 200 200" fill="none" xmlns="http://www.w3.org/2000/svg">
<rect width="200" height="200" rx="11.2546" fill="url(#paint0_linear_275_488)"/>
<path d="M97.4998 64.4644C97.4998 64.4644 87.0713 74.8929 87.0713 82.7143C87.0713 87.9286 89.6784 93.1429 97.4998 93.1429C105.321 93.1429 107.928 87.9286 107.928 82.7143C107.928 76.2226 100.639 68.0466 98.2507 65.3612C97.7606 64.8085 97.4738 64.4904 97.4998 64.4644ZM97.4998 119.214C96.1169 119.214 94.7907 119.764 93.8128 120.742C92.8349 121.719 92.2856 123.046 92.2856 124.429C92.2856 125.811 92.8349 127.138 93.8128 128.116C94.7907 129.093 96.1169 129.643 97.4998 129.643C98.8828 129.643 100.209 129.093 101.187 128.116C102.165 127.138 102.714 125.811 102.714 124.429C102.714 123.046 102.165 121.719 101.187 120.742C100.209 119.764 98.8828 119.214 97.4998 119.214Z" fill="white"/>
<path fill-rule="evenodd" clip-rule="evenodd" d="M71.4286 41C68.6627 41 66.0102 42.0987 64.0545 44.0545C62.0987 46.0102 61 48.6627 61 51.4286V119.214C61 121.98 62.0987 124.633 64.0545 126.588C66.0102 128.544 68.6627 129.643 71.4286 129.643H76.6428V145.286H118.357V129.643H123.571C126.337 129.643 128.99 128.544 130.945 126.588C132.901 124.633 134 121.98 134 119.214V51.4286C134 48.6627 132.901 46.0102 130.945 44.0545C128.99 42.0987 126.337 41 123.571 41H71.4286ZM123.571 103.571V56.6428H71.4286V103.571H123.571ZM87.0714 134.857H107.929V114H87.0714V134.857Z" fill="white"/>
<path fill-rule="evenodd" clip-rule="evenodd" d="M123.571 103.571V56.6428H71.4286V103.571H123.571ZM97.5 93.1428C99.2912 93.1793 101.069 92.8308 102.714 92.1208C105.718 90.7286 107.225 88.0641 107.725 85.1337C107.864 84.3376 107.932 83.5311 107.929 82.7142C107.929 81.0457 107.449 79.2728 106.693 77.5C105.686 75.1535 104.2 72.8228 102.714 70.7944C100.962 68.4063 99.2103 66.4405 98.2509 65.3611C97.7607 64.8084 97.4739 64.4903 97.5 64.4643C97.5 64.4643 94.8929 67.0714 92.2857 70.6588L92.2492 70.711C90.6771 72.8177 89.3477 75.0951 88.2864 77.5C87.5407 79.2728 87.0714 81.0509 87.0714 82.7142C87.0714 83.5729 87.1462 84.4228 87.2957 85.264C87.8171 88.1423 89.3292 90.7442 92.2857 92.1208C93.9306 92.8308 95.7088 93.1793 97.5 93.1428ZM66.2143 128.245C64.6254 127.334 63.3061 126.019 62.3902 124.432C61.4744 122.846 60.9948 121.046 61 119.214V51.4286C61 48.6627 62.0988 46.0102 64.0545 44.0545C66.0102 42.0987 68.6628 41 71.4286 41H123.571C126.337 41 128.99 42.0987 130.946 44.0545C132.901 46.0102 134 48.6627 134 51.4286V119.214C134.005 121.046 133.526 122.846 132.61 124.432C131.694 126.019 130.375 127.334 128.786 128.245C127.2 129.161 125.402 129.643 123.571 129.643H118.357V145.286H76.6429V129.643H71.4286C69.598 129.643 67.7996 129.161 66.2143 128.245ZM107.929 134.857H87.0714V114H107.929V134.857ZM97.5 119.214C96.1171 119.214 94.7908 119.764 93.813 120.741C92.8351 121.719 92.2857 123.046 92.2857 124.428C92.2857 125.811 92.8351 127.138 93.813 128.116C94.7908 129.093 96.1171 129.643 97.5 129.643C98.8829 129.643 100.209 129.093 101.187 128.116C102.165 127.138 102.714 125.811 102.714 124.428C102.714 123.046 102.165 121.719 101.187 120.741C100.209 119.764 98.8829 119.214 97.5 119.214Z" fill="white"/>
<path d="M64.5 133.87L63.5312 134.955C63.5312 134.955 61.8779 136.828 60.2117 139.256C58.5454 141.684 56.75 144.59 56.75 147.38C56.75 149.436 57.5665 151.407 59.0199 152.861C60.4733 154.314 62.4446 155.13 64.5 155.13C66.5554 155.13 68.5267 154.314 69.9801 152.861C71.4335 151.407 72.25 149.436 72.25 147.38C72.25 144.59 70.4546 141.684 68.7883 139.256C67.1221 136.828 65.4688 134.955 65.4688 134.955L64.5 133.87ZM64.5 137.913C65.0683 138.584 65.585 139.14 66.67 140.715C68.2329 142.989 69.6667 145.882 69.6667 147.38C69.6667 150.248 67.3675 152.547 64.5 152.547C61.6325 152.547 59.3333 150.248 59.3333 147.38C59.3333 145.882 60.7671 142.989 62.33 140.715C63.415 139.14 63.9317 138.584 64.5 137.913Z" fill="white"/>
<defs>
<linearGradient id="paint0_linear_275_488" x1="183.655" y1="-4.37134e-06" x2="-29.1532" y2="117.821" gradientUnits="userSpaceOnUse">
<stop offset="0.035429" stop-color="#0E478E"/>
<stop offset="1" stop-color="#072142"/>
</linearGradient>
</defs>
</svg>
