<svg width="11" height="18" viewBox="0 0 11 18" fill="none" xmlns="http://www.w3.org/2000/svg">
<path d="M8.13389 9.23071L9.31007 15.8499C9.32324 15.9279 9.31231 16.008 9.27872 16.0795C9.24514 16.1511 9.19051 16.2107 9.12214 16.2504C9.05377 16.29 8.97491 16.3079 8.89612 16.3015C8.81733 16.2952 8.74235 16.2649 8.68122 16.2148L5.90187 14.1287C5.7677 14.0285 5.60471 13.9743 5.43722 13.9743C5.26974 13.9743 5.10675 14.0285 4.97258 14.1287L2.18857 16.214C2.12748 16.264 2.0526 16.2943 1.9739 16.3006C1.89521 16.307 1.81644 16.2892 1.74811 16.2496C1.67979 16.2101 1.62515 16.1506 1.59149 16.0792C1.55783 16.0078 1.54675 15.9278 1.55972 15.8499L2.73512 9.23071" stroke="#014282" stroke-width="1.55271" stroke-linecap="round" stroke-linejoin="round"/>
<path d="M5.4345 10.0926C8.00711 10.0926 10.0926 8.00711 10.0926 5.4345C10.0926 2.86188 8.00711 0.776367 5.4345 0.776367C2.86188 0.776367 0.776367 2.86188 0.776367 5.4345C0.776367 8.00711 2.86188 10.0926 5.4345 10.0926Z" stroke="#014282" stroke-width="1.55271" stroke-linecap="round" stroke-linejoin="round"/>
</svg>
