<svg width="84" height="82" viewBox="0 0 84 82" fill="none" xmlns="http://www.w3.org/2000/svg">
<g filter="url(#filter0_d_226_137)">
<path d="M37.4862 16.2223C39.4043 14.5237 40.3634 13.6743 41.5155 13.6743C42.6676 13.6743 43.6267 14.5237 45.5448 16.2223L46.9866 17.4991C48.0049 18.4009 48.514 18.8518 49.1434 19.0451C49.7729 19.2384 50.4473 19.1511 51.7962 18.9765L53.7702 18.7209C56.4579 18.3729 57.8017 18.1989 58.7781 18.9053C59.7544 19.6117 60.0094 20.9426 60.5195 23.6043L60.6822 24.4534C60.9635 25.9215 61.1042 26.6556 61.5416 27.2262C61.979 27.7968 62.6513 28.1234 63.9959 28.7764L64.8423 29.1875C67.5111 30.4838 68.8455 31.1319 69.245 32.3616C69.6444 33.5913 68.9456 34.8999 67.5481 37.5171L67.4442 37.7116C66.6958 39.1131 66.3216 39.8139 66.3216 40.5744C66.3216 41.3349 66.6958 42.0356 67.4442 43.4371L67.5481 43.6317C68.9456 46.2489 69.6444 47.5575 69.245 48.7872C68.8455 50.0168 67.5111 50.665 64.8423 51.9612L63.9959 52.3723C62.6513 53.0254 61.979 53.3519 61.5416 53.9226C61.1042 54.4932 60.9635 55.2272 60.6822 56.6953L60.5195 57.5444C60.0094 60.2062 59.7544 61.537 58.7781 62.2434C57.8017 62.9499 56.4579 62.7759 53.7702 62.4279L51.7962 62.1723C50.4473 61.9976 49.7729 61.9103 49.1434 62.1036C48.514 62.297 48.0049 62.7479 46.9866 63.6496L45.5448 64.9265C43.6267 66.6251 42.6676 67.4744 41.5155 67.4744C40.3634 67.4744 39.4043 66.6251 37.4862 64.9265L36.0444 63.6496C35.0262 62.7479 34.517 62.297 33.8876 62.1036C33.2581 61.9103 32.5837 61.9976 31.2348 62.1723L29.2608 62.4279C26.5732 62.7759 25.2293 62.9499 24.253 62.2434C23.2766 61.537 23.0216 60.2062 22.5115 57.5444L22.3488 56.6953C22.0675 55.2272 21.9268 54.4932 21.4894 53.9226C21.052 53.3519 20.3797 53.0254 19.0351 52.3723L18.1888 51.9612C15.5199 50.665 14.1855 50.0168 13.786 48.7872C13.3866 47.5575 14.0854 46.2489 15.4829 43.6317L15.5868 43.4371C16.3352 42.0356 16.7094 41.3349 16.7094 40.5744C16.7094 39.8139 16.3352 39.1131 15.5868 37.7116L15.4829 37.5171C14.0854 34.8999 13.3866 33.5913 13.786 32.3616C14.1855 31.1319 15.5199 30.4838 18.1887 29.1875L19.0351 28.7764C20.3797 28.1234 21.052 27.7968 21.4894 27.2262C21.9268 26.6556 22.0675 25.9215 22.3488 24.4534L22.5115 23.6043C23.0216 20.9426 23.2766 19.6117 24.253 18.9053C25.2293 18.1989 26.5732 18.3729 29.2609 18.7209L31.2348 18.9765C32.5837 19.1511 33.2581 19.2384 33.8876 19.0451C34.517 18.8518 35.0261 18.4009 36.0444 17.4991L37.4862 16.2223Z" fill="#00A545"/>
<path d="M41.5155 12.9148C42.3025 12.9148 42.9801 13.213 43.6708 13.6833C44.3436 14.1416 45.1048 14.8171 46.0487 15.6531L47.4901 16.9304C48.5595 17.8775 48.9309 18.1853 49.3661 18.3191C49.8014 18.4528 50.2821 18.4069 51.6991 18.2234L53.6727 17.9675C54.9958 17.7962 56.0616 17.6566 56.9169 17.658C57.7941 17.6594 58.5557 17.8066 59.2235 18.2898C59.8913 18.773 60.2691 19.4502 60.5448 20.283C60.8136 21.0949 61.0144 22.1513 61.2655 23.4617L61.4286 24.3103C61.7243 25.8535 61.8421 26.37 62.1444 26.7644C62.4468 27.1587 62.9148 27.4071 64.328 28.0935L65.1737 28.5046C66.4884 29.1432 67.546 29.6545 68.3163 30.1677C69.1046 30.693 69.6938 31.2837 69.9677 32.1267C70.2416 32.9699 70.1124 33.7948 69.7831 34.6833C69.4614 35.5512 68.907 36.5857 68.2186 37.8748L68.1141 38.0691C67.7334 38.782 67.4729 39.2721 67.3026 39.6775C67.1385 40.0682 67.081 40.3297 67.0809 40.574C67.0809 40.8184 67.1384 41.0805 67.3026 41.4714C67.4729 41.8767 67.7336 42.3662 68.1141 43.0789L68.2186 43.2742C68.907 44.5632 69.4615 45.5978 69.7831 46.4656C70.1124 47.3542 70.2416 48.179 69.9677 49.0222C69.6937 49.8651 69.1046 50.4559 68.3163 50.9812C67.546 51.4944 66.4884 52.0057 65.1737 52.6443L64.328 53.0554C62.9147 53.7419 62.4468 53.9901 62.1444 54.3845C61.8421 54.779 61.7243 55.2954 61.4286 56.8386L61.2655 57.6873C61.0144 58.9977 60.8136 60.054 60.5448 60.866C60.2691 61.6987 59.8913 62.3759 59.2235 62.8591C58.5557 63.3423 57.7941 63.4895 56.9169 63.491C56.0616 63.4923 54.9958 63.3527 53.6727 63.1814L51.6991 62.9255C50.2821 62.7421 49.8014 62.6961 49.3661 62.8298C48.9309 62.9636 48.5595 63.2715 47.4901 64.2185L46.0487 65.4949C45.1047 66.3309 44.3436 67.0073 43.6708 67.4656C42.9801 67.936 42.3025 68.2341 41.5155 68.2341C40.7285 68.2341 40.0509 67.936 39.3602 67.4656C38.6874 67.0073 37.9263 66.3309 36.9823 65.4949L35.5409 64.2185C34.4715 63.2715 34.1001 62.9636 33.6649 62.8298C33.2296 62.6961 32.7489 62.7421 31.3319 62.9255L29.3583 63.1814C28.0352 63.3527 26.9694 63.4923 26.1141 63.491C25.2369 63.4895 24.4753 63.3423 23.8075 62.8591C23.1397 62.3759 22.7619 61.6987 22.4862 60.866C22.2174 60.054 22.0166 58.9977 21.7655 57.6873L21.6024 56.8386C21.3067 55.2954 21.189 54.779 20.8866 54.3845C20.5842 53.9901 20.1163 53.7419 18.703 53.0554L17.8573 52.6443C16.5426 52.0057 15.485 51.4944 14.7147 50.9812C13.9264 50.4559 13.3373 49.8651 13.0634 49.0222C12.7894 48.179 12.9186 47.3542 13.2479 46.4656C13.5695 45.5978 14.124 44.5632 14.8124 43.2742L14.9169 43.0789C15.2974 42.3662 15.5582 41.8767 15.7284 41.4714C15.8926 41.0805 15.9501 40.8184 15.9501 40.574C15.95 40.3297 15.8925 40.0682 15.7284 39.6775C15.5581 39.2721 15.2976 38.782 14.9169 38.0691L14.8124 37.8748C14.124 36.5857 13.5696 35.5512 13.2479 34.6833C12.9186 33.7948 12.7894 32.9699 13.0634 32.1267C13.3372 31.2837 13.9264 30.693 14.7147 30.1677C15.485 29.6545 16.5426 29.1432 17.8573 28.5046L18.703 28.0935C20.1162 27.4071 20.5842 27.1587 20.8866 26.7644C21.189 26.37 21.3067 25.8535 21.6024 24.3103L21.7655 23.4617C22.0166 22.1513 22.2174 21.0949 22.4862 20.283C22.7619 19.4502 23.1397 18.773 23.8075 18.2898C24.4753 17.8066 25.2369 17.6594 26.1141 17.658C26.9694 17.6566 28.0352 17.7962 29.3583 17.9675L31.3319 18.2234C32.7489 18.4069 33.2296 18.4528 33.6649 18.3191C34.1001 18.1853 34.4715 17.8775 35.5409 16.9304L36.9823 15.6531C37.9262 14.8171 38.6874 14.1416 39.3602 13.6833C40.0509 13.213 40.7285 12.9148 41.5155 12.9148Z" stroke="white" stroke-width="1.51938"/>
</g>
<path d="M32.0479 33.2813L30.3386 32.8629L31.0419 26.3462H38.0305V28.1623H32.8225L32.4664 31.3405C32.6681 31.2218 32.9471 31.1061 33.3032 30.9933C33.6593 30.8746 34.0659 30.8153 34.5229 30.8153C35.1342 30.8153 35.6802 30.9162 36.1609 31.118C36.6476 31.3138 37.0601 31.6017 37.3984 31.9815C37.7367 32.3554 37.9949 32.8124 38.1729 33.3525C38.351 33.8867 38.44 34.4891 38.44 35.1597C38.44 35.7592 38.351 36.32 38.1729 36.8423C38.0008 37.3646 37.7397 37.8246 37.3895 38.2222C37.0393 38.6199 36.5972 38.9315 36.063 39.157C35.5348 39.3766 34.9086 39.4864 34.1846 39.4864C33.6445 39.4864 33.1251 39.4092 32.6266 39.2549C32.134 39.0947 31.6918 38.8603 31.3001 38.5516C30.9084 38.2371 30.5938 37.8513 30.3564 37.3943C30.119 36.9314 29.9825 36.4002 29.9469 35.8007H32.0479C32.1013 36.2221 32.2171 36.5812 32.3951 36.8779C32.5791 37.1688 32.8225 37.3913 33.1251 37.5456C33.4278 37.6999 33.778 37.7771 34.1756 37.7771C34.5377 37.7771 34.8493 37.7148 35.1104 37.5901C35.3716 37.4596 35.5882 37.2756 35.7603 37.0382C35.9384 36.7948 36.0689 36.51 36.152 36.1835C36.2411 35.8571 36.2856 35.4951 36.2856 35.0974C36.2856 34.7176 36.2351 34.3704 36.1342 34.0558C36.0393 33.7413 35.8939 33.4682 35.698 33.2368C35.5081 33.0053 35.2677 32.8273 34.9769 32.7026C34.6861 32.572 34.3507 32.5068 33.9709 32.5068C33.4605 32.5068 33.0688 32.581 32.7957 32.7293C32.5287 32.8777 32.2794 33.0617 32.0479 33.2813ZM40.0692 29.5244V28.8389C40.0692 28.3463 40.176 27.8982 40.3897 27.4946C40.6033 27.091 40.9149 26.7676 41.3244 26.5242C41.734 26.2809 42.2266 26.1592 42.8023 26.1592C43.3958 26.1592 43.8943 26.2809 44.2979 26.5242C44.7074 26.7676 45.019 27.091 45.2327 27.4946C45.4463 27.8982 45.5532 28.3463 45.5532 28.8389V29.5244C45.5532 30.0051 45.4463 30.4473 45.2327 30.8509C45.025 31.2545 44.7163 31.5779 44.3068 31.8213C43.9032 32.0646 43.4076 32.1863 42.8201 32.1863C42.2384 32.1863 41.7399 32.0646 41.3244 31.8213C40.9149 31.5779 40.6033 31.2545 40.3897 30.8509C40.176 30.4473 40.0692 30.0051 40.0692 29.5244ZM41.5559 28.8389V29.5244C41.5559 29.7618 41.6004 29.9873 41.6894 30.201C41.7844 30.4147 41.9268 30.5868 42.1168 30.7173C42.3067 30.8479 42.5411 30.9132 42.8201 30.9132C43.105 30.9132 43.3364 30.8479 43.5145 30.7173C43.6985 30.5868 43.835 30.4147 43.924 30.201C44.013 29.9873 44.0575 29.7618 44.0575 29.5244V28.8389C44.0575 28.5956 44.0101 28.3671 43.9151 28.1534C43.8261 27.9338 43.6896 27.7587 43.5056 27.6281C43.3216 27.4976 43.0872 27.4323 42.8023 27.4323C42.5293 27.4323 42.2978 27.4976 42.1079 27.6281C41.9239 27.7587 41.7844 27.9338 41.6894 28.1534C41.6004 28.3671 41.5559 28.5956 41.5559 28.8389ZM46.3188 36.8245V36.1301C46.3188 35.6434 46.4256 35.1983 46.6393 34.7947C46.8589 34.3911 47.1734 34.0677 47.583 33.8243C47.9925 33.581 48.4851 33.4593 49.0608 33.4593C49.6543 33.4593 50.1528 33.581 50.5564 33.8243C50.966 34.0677 51.2746 34.3911 51.4823 34.7947C51.696 35.1983 51.8028 35.6434 51.8028 36.1301V36.8245C51.8028 37.3112 51.696 37.7563 51.4823 38.1599C51.2746 38.5635 50.9689 38.887 50.5653 39.1303C50.1618 39.3736 49.6662 39.4953 49.0786 39.4953C48.497 39.4953 47.9984 39.3736 47.583 39.1303C47.1734 38.887 46.8589 38.5635 46.6393 38.1599C46.4256 37.7563 46.3188 37.3112 46.3188 36.8245ZM47.8144 36.1301V36.8245C47.8144 37.0619 47.8619 37.2875 47.9569 37.5011C48.0578 37.7148 48.2032 37.8899 48.3931 38.0264C48.583 38.1569 48.8115 38.2222 49.0786 38.2222C49.3813 38.2222 49.6246 38.1569 49.8086 38.0264C49.9926 37.8899 50.1232 37.7178 50.2003 37.51C50.2834 37.2964 50.325 37.0679 50.325 36.8245V36.1301C50.325 35.8868 50.2775 35.6583 50.1825 35.4446C50.0935 35.231 49.954 35.0588 49.7641 34.9283C49.5801 34.7977 49.3457 34.7324 49.0608 34.7324C48.7818 34.7324 48.5504 34.7977 48.3664 34.9283C48.1824 35.0588 48.0429 35.231 47.948 35.4446C47.8589 35.6583 47.8144 35.8868 47.8144 36.1301ZM49.595 28.1979L43.2652 38.3291L42.1702 37.697L48.4999 27.5658L49.595 28.1979ZM29.5107 53.5989V53.3941C29.5107 52.6997 29.6116 52.0558 29.8134 51.4623C30.0152 50.8628 30.306 50.3435 30.6858 49.9043C31.0716 49.4592 31.5405 49.1149 32.0924 48.8716C32.6503 48.6223 33.2795 48.4977 33.9798 48.4977C34.6861 48.4977 35.3152 48.6223 35.8671 48.8716C36.425 49.1149 36.8969 49.4592 37.2827 49.9043C37.6684 50.3435 37.9622 50.8628 38.164 51.4623C38.3658 52.0558 38.4667 52.6997 38.4667 53.3941V53.5989C38.4667 54.2933 38.3658 54.9372 38.164 55.5307C37.9622 56.1242 37.6684 56.6436 37.2827 57.0887C36.8969 57.5279 36.428 57.8721 35.876 58.1214C35.3241 58.3647 34.6979 58.4864 33.9976 58.4864C33.2913 58.4864 32.6592 58.3647 32.1013 58.1214C31.5494 57.8721 31.0805 57.5279 30.6947 57.0887C30.309 56.6436 30.0152 56.1242 29.8134 55.5307C29.6116 54.9372 29.5107 54.2933 29.5107 53.5989ZM31.6562 53.3941V53.5989C31.6562 54.0321 31.7007 54.4417 31.7898 54.8274C31.8788 55.2132 32.0183 55.5515 32.2082 55.8423C32.3981 56.1331 32.6414 56.3616 32.9382 56.5278C33.2349 56.694 33.5881 56.7771 33.9976 56.7771C34.3952 56.7771 34.7395 56.694 35.0303 56.5278C35.3271 56.3616 35.5704 56.1331 35.7603 55.8423C35.9502 55.5515 36.0897 55.2132 36.1787 54.8274C36.2737 54.4417 36.3212 54.0321 36.3212 53.5989V53.3941C36.3212 52.9668 36.2737 52.5632 36.1787 52.1834C36.0897 51.7976 35.9473 51.4563 35.7514 51.1596C35.5615 50.8628 35.3181 50.6313 35.0214 50.4652C34.7306 50.293 34.3834 50.207 33.9798 50.207C33.5762 50.207 33.226 50.293 32.9293 50.4652C32.6385 50.6313 32.3981 50.8628 32.2082 51.1596C32.0183 51.4563 31.8788 51.7976 31.7898 52.1834C31.7007 52.5632 31.6562 52.9668 31.6562 53.3941ZM43.1673 58.3083H41.0217V47.7499C41.0217 47.0317 41.1553 46.4293 41.4224 45.9426C41.6954 45.45 42.0841 45.0791 42.5886 44.8298C43.0931 44.5746 43.6896 44.447 44.378 44.447C44.5917 44.447 44.8024 44.4618 45.0101 44.4915C45.2178 44.5153 45.4196 44.5538 45.6155 44.6072L45.5621 46.2631C45.4434 46.2335 45.3128 46.2127 45.1704 46.2008C45.0339 46.1889 44.8855 46.183 44.7252 46.183C44.3988 46.183 44.1169 46.2453 43.8795 46.37C43.648 46.4887 43.47 46.6637 43.3453 46.8952C43.2266 47.1267 43.1673 47.4116 43.1673 47.7499V58.3083ZM45.1526 48.6757V50.2426H39.5439V48.6757H45.1526ZM49.6128 58.3083H47.4672V47.7499C47.4672 47.0317 47.6008 46.4293 47.8678 45.9426C48.1409 45.45 48.5296 45.0791 49.0341 44.8298C49.5386 44.5746 50.135 44.447 50.8235 44.447C51.0372 44.447 51.2479 44.4618 51.4556 44.4915C51.6633 44.5153 51.8651 44.5538 52.061 44.6072L52.0076 46.2631C51.8889 46.2335 51.7583 46.2127 51.6158 46.2008C51.4793 46.1889 51.331 46.183 51.1707 46.183C50.8443 46.183 50.5624 46.2453 50.325 46.37C50.0935 46.4887 49.9154 46.6637 49.7908 46.8952C49.6721 47.1267 49.6128 47.4116 49.6128 47.7499V58.3083ZM51.598 48.6757V50.2426H45.9894V48.6757H51.598Z" fill="white"/>
<defs>
<filter id="filter0_d_226_137" x="1.23978e-05" y="1.23978e-05" width="83.031" height="81.1489" filterUnits="userSpaceOnUse" color-interpolation-filters="sRGB">
<feFlood flood-opacity="0" result="BackgroundImageFix"/>
<feColorMatrix in="SourceAlpha" type="matrix" values="0 0 0 0 0 0 0 0 0 0 0 0 0 0 0 0 0 0 127 0" result="hardAlpha"/>
<feOffset/>
<feGaussianBlur stdDeviation="6.07751"/>
<feComposite in2="hardAlpha" operator="out"/>
<feColorMatrix type="matrix" values="0 0 0 0 0 0 0 0 0 0 0 0 0 0 0 0 0 0 0.16 0"/>
<feBlend mode="normal" in2="BackgroundImageFix" result="effect1_dropShadow_226_137"/>
<feBlend mode="normal" in="SourceGraphic" in2="effect1_dropShadow_226_137" result="shape"/>
</filter>
</defs>
</svg>
