<svg width="200" height="200" viewBox="0 0 200 200" fill="none" xmlns="http://www.w3.org/2000/svg">
<rect width="200" height="200" rx="11.2546" fill="url(#paint0_linear_275_504)"/>
<path d="M90.1677 48.75H100.001V55.2498C103.131 55.0581 106.162 55.24 108.885 55.8152C97.3313 60.3632 92.0139 72.0525 91.1437 73.9651L91.0896 74.0831C88.265 73.6554 85.2068 73.2965 82.3134 73.3235C79.329 73.5792 76.4355 74.0192 71.6688 76.7037C70.9952 77.1806 70.0905 77.9575 68.8589 79.1473C68.7704 79.0809 68.6745 79.0244 68.5492 78.9433L68.178 78.7073C67.2476 78.1044 66.2841 77.5545 65.2919 77.0602C62.7942 75.8212 59.7311 74.7665 56.7295 74.7665V65.2307C61.919 65.2307 66.5874 66.9933 69.771 68.574C70.8747 69.1222 71.8433 69.668 72.6472 70.1547C73.3713 68.6276 74.3019 67.2073 75.4128 65.9338L70.0094 57.4599L78.6652 51.8377L83.6482 59.6552C85.7379 58.5873 87.919 57.7087 90.1653 57.0297L90.1677 48.75ZM116.612 70.1154C113.028 71.7772 109.925 74.506 107.13 79.7619C107.13 79.7619 100.925 76.925 95.8907 75.45C99.7552 67.6177 104.249 63.2124 110.879 60.1395C117.293 57.1649 124.941 56.4028 134.032 56.7199L133.599 68.4167C125.216 68.1266 120.41 68.3552 116.612 70.1154Z" fill="white"/>
<path d="M73.6506 81.2504C55.7957 97.1755 81.301 136.988 101.708 136.988C122.114 136.988 150.211 97.2099 129.765 78.974C129.339 78.5936 128.916 78.2101 128.496 77.8235C126.805 76.2748 125.681 75.2423 122.562 73.3887C116.288 73.3887 112.507 79.6648 110.786 83.49C110.699 83.6811 110.592 83.8624 110.467 84.0308L106.496 95.0687L105.068 100.204C104.917 100.746 104.956 101.323 105.179 101.839L106.85 105.699L115.496 104.696L116.064 109.578L107.93 110.524L108.458 118.27L103.554 118.605L102.895 108.941L100.668 103.791C99.9973 102.242 99.8784 100.51 100.331 98.884L100.373 98.7316L95.3725 100.993L92.1029 109.256L87.5304 107.446L90.1215 100.902L82.2302 99.0438L83.3561 94.2575L93.2042 96.5781L102.189 92.5096L105.213 84.1021C97.4252 80.4416 81.4312 74.3056 73.6482 81.2455" fill="white"/>
<defs>
<linearGradient id="paint0_linear_275_504" x1="183.655" y1="-4.37134e-06" x2="-29.1532" y2="117.821" gradientUnits="userSpaceOnUse">
<stop offset="0.035429" stop-color="#0E478E"/>
<stop offset="1" stop-color="#072142"/>
</linearGradient>
</defs>
</svg>
