<svg width="10" height="11" viewBox="0 0 10 11" fill="none" xmlns="http://www.w3.org/2000/svg">
<path d="M0 9.40117V3.94243C0 3.75036 0.0430633 3.5684 0.12919 3.39655C0.215317 3.2247 0.333994 3.08318 0.485222 2.97198L4.12438 0.242611C4.33667 0.0808703 4.57928 0 4.85222 0C5.12515 0 5.36776 0.0808703 5.58005 0.242611L9.21921 2.97198C9.37084 3.08318 9.48972 3.2247 9.57585 3.39655C9.66198 3.5684 9.70484 3.75036 9.70443 3.94243V9.40117C9.70443 9.73476 9.58555 10.0204 9.34779 10.2582C9.11004 10.496 8.82456 10.6146 8.49138 10.6142H6.6718C6.49995 10.6142 6.356 10.556 6.23995 10.4395C6.1239 10.3231 6.06567 10.1791 6.06527 10.0077V6.97506C6.06527 6.80321 6.00704 6.65926 5.89059 6.54321C5.77414 6.42717 5.63019 6.36894 5.45874 6.36853H4.24569C4.07384 6.36853 3.92989 6.42676 3.81384 6.54321C3.69779 6.65967 3.63957 6.80362 3.63916 6.97506V10.0077C3.63916 10.1795 3.58094 10.3237 3.46448 10.4402C3.34803 10.5566 3.20408 10.6146 3.03264 10.6142H1.21305C0.879464 10.6142 0.593992 10.4955 0.356638 10.2582C0.119284 10.0208 0.000404351 9.73516 0 9.40117Z" fill="#0076BC"/>
</svg>
