<svg width="200" height="200" viewBox="0 0 200 200" fill="none" xmlns="http://www.w3.org/2000/svg">
<rect width="200" height="200" rx="11.2546" fill="url(#paint0_linear_275_521)"/>
<path d="M79.1345 54.9979C60.2126 54.8827 49.0288 66.3458 47.4417 77.3295C43.9436 103.87 41.1499 127.5 58.251 134.862C63.6424 137.183 93.7189 110.453 114.93 104.587C117.534 88.398 117.396 80.3898 115.821 64.6872C115.821 64.6872 114.997 59.9138 111.357 59.1165C103.843 57.4707 90.8375 54.9639 79.1342 54.9982L79.1345 54.9979ZM147.165 57.6165C139.461 57.5934 130.442 58.5204 122.951 60.0286C121.253 60.3706 120.245 63.9141 120.433 64.8589C121.906 79.8937 122.084 87.0833 119.825 102.814C161.968 85.2306 165.632 73.2563 165.155 68.0911C164.402 59.9273 156.739 57.6454 147.165 57.6165ZM112.277 109.887C102.284 113.599 91.9761 120.267 83.4136 126.274C88.5135 127.783 97.8035 127.959 102.336 125.411C106.977 121.39 111.086 115.917 112.276 109.887H112.277Z" fill="white"/>
<defs>
<linearGradient id="paint0_linear_275_521" x1="183.655" y1="-4.37134e-06" x2="-29.1532" y2="117.821" gradientUnits="userSpaceOnUse">
<stop offset="0.035429" stop-color="#0E478E"/>
<stop offset="1" stop-color="#072142"/>
</linearGradient>
</defs>
</svg>
