<svg width="33" height="37" viewBox="0 0 33 37" fill="none" xmlns="http://www.w3.org/2000/svg">
<g filter="url(#filter0_d_14_9)">
<path d="M16.5 13.975C15.6949 13.975 14.9227 13.6984 14.3534 13.2062C13.7841 12.7139 13.4643 12.0462 13.4643 11.35C13.4643 10.6538 13.7841 9.98613 14.3534 9.49384C14.9227 9.00156 15.6949 8.725 16.5 8.725C17.3051 8.725 18.0773 9.00156 18.6466 9.49384C19.2159 9.98613 19.5357 10.6538 19.5357 11.35C19.5357 11.6947 19.4572 12.0361 19.3046 12.3545C19.1521 12.673 18.9285 12.9624 18.6466 13.2062C18.3647 13.4499 18.03 13.6433 17.6617 13.7752C17.2934 13.9071 16.8987 13.975 16.5 13.975ZM16.5 4C14.2457 4 12.0837 4.77437 10.4896 6.15277C8.89553 7.53116 8 9.40066 8 11.35C8 16.8625 16.5 25 16.5 25C16.5 25 25 16.8625 25 11.35C25 9.40066 24.1045 7.53116 22.5104 6.15277C20.9163 4.77437 18.7543 4 16.5 4Z" fill="#0A77FC"/>
</g>
<defs>
<filter id="filter0_d_14_9" x="0" y="0" width="33" height="37" filterUnits="userSpaceOnUse" color-interpolation-filters="sRGB">
<feFlood flood-opacity="0" result="BackgroundImageFix"/>
<feColorMatrix in="SourceAlpha" type="matrix" values="0 0 0 0 0 0 0 0 0 0 0 0 0 0 0 0 0 0 127 0" result="hardAlpha"/>
<feOffset dy="4"/>
<feGaussianBlur stdDeviation="4"/>
<feComposite in2="hardAlpha" operator="out"/>
<feColorMatrix type="matrix" values="0 0 0 0 0.117647 0 0 0 0 0.117647 0 0 0 0 0.117647 0 0 0 0.76 0"/>
<feBlend mode="normal" in2="BackgroundImageFix" result="effect1_dropShadow_14_9"/>
<feBlend mode="normal" in="SourceGraphic" in2="effect1_dropShadow_14_9" result="shape"/>
</filter>
</defs>
</svg>
