<svg width="14" height="17" viewBox="0 0 14 17" fill="none" xmlns="http://www.w3.org/2000/svg">
<path d="M0.582275 6.90413C0.582275 3.41286 3.36318 0.582275 6.79311 0.582275C10.223 0.582275 13.004 3.41286 13.004 6.90413C13.004 10.3682 11.0219 14.4115 7.92892 15.8563C7.57341 16.0227 7.18566 16.109 6.79311 16.109C6.40056 16.109 6.01281 16.0227 5.65731 15.8563C2.56431 14.4107 0.582275 10.369 0.582275 6.90491V6.90413Z" stroke="#014282" stroke-width="1.16453"/>
<path d="M6.7931 9.89858C8.50818 9.89858 9.89852 8.50824 9.89852 6.79316C9.89852 5.07809 8.50818 3.68774 6.7931 3.68774C5.07803 3.68774 3.68768 5.07809 3.68768 6.79316C3.68768 8.50824 5.07803 9.89858 6.7931 9.89858Z" stroke="#014282" stroke-width="1.16453"/>
<path d="M5.6286 6.79319H7.95767M6.79313 7.95773V5.62866" stroke="#014282" stroke-width="1.16453" stroke-linecap="round"/>
</svg>
