<svg
    xmlns="http://www.w3.org/2000/svg"
    width="218"
    height="42"
    fill="none"
    viewBox="0 0 218 42"
    class="w-[134px] sm:w-auto sm:h-auto"
>
    <path
        fill="#0075BB"
        d="M16.553 25.342h-4.054v-.81c-1.251.98-2.77 1.451-4.324 1.451C4.189 25.983 0 22.941 0 17.738s4.189-8.246 8.175-8.246c1.553 0 3.073.472 4.324 1.452v-.81h4.054zM8.276 13.009c-2.33 0-4.223 2.13-4.223 4.732 0 2.601 1.893 4.731 4.223 4.731s4.223-2.13 4.223-4.731c0-2.605-1.892-4.732-4.223-4.732M37.498 26.41c0 4.562-3.717 7.94-8.276 7.94a8.24 8.24 0 0 1-7.164-4.124l3.412-1.994c.71 1.52 2.13 2.568 3.752 2.568 2.33 0 4.222-1.791 4.222-4.393V24.08c-1.251.98-2.77 1.452-4.324 1.452-3.986 0-8.175-3.042-8.175-8.245 0-5.204 4.19-8.246 8.175-8.246 1.553 0 3.073.475 4.324 1.452v-.81h4.054zm-8.276-13.855c-2.33 0-4.223 2.13-4.223 4.732 0 2.601 1.892 4.731 4.223 4.731s4.222-2.13 4.222-4.732c0-2.601-1.892-4.731-4.222-4.731M46.284 4.39H42.23V-.002h4.053zm0 20.952H42.23V10.136h4.053zM55.065 25.342h-4.053V-.002h4.053zM74.324 25.34h-4.053v-.776c-1.014 1.081-2.466 1.451-3.82 1.451-3.344 0-6.654-2.635-6.654-6.454v-9.426h4.053v9.429c0 1.621 1.249 2.805 3.04 2.805 1.892 0 3.378-1.486 3.378-3.175v-9.06h4.053V25.34zM88.073 14.97c-.573-1.486-2.028-2.198-3.31-2.198-1.184 0-2.195.607-2.195 1.689 0 .607.407 1.014 1.251 1.217l2.972.642c2.195.508 4.528 1.42 4.528 4.596 0 3.344-3.141 5.135-6.384 5.135-2.94 0-5.946-1.486-6.892-4.528l3.243-1.184c.709 1.621 2.265 2.33 3.615 2.33 1.317 0 2.5-.675 2.5-1.824 0-.54-.407-.913-1.251-1.116l-2.972-.641c-2.194-.472-4.46-1.486-4.46-4.664 0-3.31 2.94-4.969 6.048-4.969 2.77 0 5.64 1.353 6.553 4.087z"
    ></path>
    <path
        fill="#76C58F"
        d="M115.246 24.413h3.067c.034 0 1.418.006 1.449.01l8.251-8.172-8.122-8.042h-4.525l8.042 8.042z"
    ></path>
    <path
        fill="#FFCB05"
        d="M106.305 24.413h3.067c.034 0 1.421.006 1.448.01l8.252-8.172-8.122-8.042h-4.522l8.042 8.042z"
    ></path>
    <path
        fill="#ED1C24"
        d="M97.371 24.413h3.067c.034 0 1.418.006 1.449.01l8.251-8.172-8.125-8.042h-4.522l8.042 8.042z"
    ></path>
    <path
        fill="#0075BB"
        d="M47.244 38.627h-.965v-.882c-.48.688-1.23 1.122-2.123 1.122-1.557 0-2.883-1.325-2.883-2.956 0-1.627 1.326-2.956 2.883-2.956.89 0 1.64.435 2.123 1.122V29.58h.965zm-2.99-4.824c-1.11 0-2.013.94-2.013 2.111s.904 2.112 2.013 2.112c1.11 0 2.025-.94 2.025-2.112 0-1.17-.915-2.111-2.025-2.111M52.523 31.03h-.964v-1.446h.964zm0 7.598h-.964V33.2h.964zM62.447 38.626h-.965v-.882c-.48.688-1.23 1.122-2.123 1.122-1.557 0-2.882-1.325-2.882-2.956 0-1.627 1.325-2.956 2.882-2.956.893 0 1.64.435 2.123 1.122v-.878h.965zm-2.99-4.824c-1.11 0-2.013.94-2.013 2.111s.904 2.112 2.013 2.112c1.11 0 2.025-.94 2.025-2.112 0-1.171-.915-2.111-2.025-2.111M72.368 39.045C72.368 40.89 70.8 42 69.233 42c-1.014 0-2.025-.472-2.617-1.483l.783-.447a2.1 2.1 0 0 0 1.856 1.073c1.085 0 2.145-.783 2.145-2.1v-1.3c-.48.688-1.23 1.122-2.123 1.122-1.557 0-2.883-1.325-2.883-2.956 0-1.627 1.326-2.956 2.883-2.956.89 0 1.64.435 2.123 1.122v-.878h.965v5.847zm-2.99-5.243c-1.11 0-2.013.94-2.013 2.111s.904 2.112 2.013 2.112c1.11 0 2.025-.94 2.025-2.112 0-1.171-.915-2.111-2.025-2.111M81.632 38.627h-.965V35.19c0-.82-.617-1.4-1.446-1.4-.881 0-1.569.712-1.569 1.557v3.28h-.965v-5.429h.965v.65c.398-.603 1.06-.89 1.723-.89 1.122 0 2.257.795 2.257 2.232zM88.543 38.866a2.96 2.96 0 0 1-2.953-2.956 2.96 2.96 0 0 1 2.953-2.956 2.96 2.96 0 0 1 2.956 2.956 2.965 2.965 0 0 1-2.956 2.956m0-5.064c-1.098 0-1.991.94-1.991 2.111s.893 2.112 1.99 2.112c1.098 0 1.992-.94 1.992-2.112-.003-1.171-.894-2.111-1.991-2.111M97.33 38.867c-.977 0-1.979-.46-2.244-1.338l.832-.327c.278.639.783.857 1.375.857.604 0 1.18-.314 1.18-.94 0-.314-.215-.58-.76-.7l-1.015-.227c-.795-.17-1.4-.617-1.4-1.557 0-1.134.965-1.677 1.967-1.677.916 0 1.859.447 2.112 1.325l-.833.327a1.37 1.37 0 0 0-1.279-.844c-.555 0-1.035.314-1.035.869 0 .265.194.613.542.687l1.023.228c.87.195 1.628.543 1.628 1.594.006 1.168-1.033 1.723-2.093 1.723M105.793 34.043h-.965v4.584h-.965v-4.584h-.965V33.2h.965V29.58h.965V33.2h.965zM110.594 31.03h-.965v-1.446h.965zm0 7.598h-.965V33.2h.965zM120.034 37.384c-.567.927-1.495 1.482-2.543 1.482a2.96 2.96 0 0 1-2.956-2.956 2.96 2.96 0 0 1 2.956-2.956c1.048 0 1.979.555 2.543 1.483l-.783.447c-.397-.7-1.035-1.098-1.772-1.098-1.122 0-1.979.953-1.979 2.124 0 1.18.857 2.124 1.979 2.124.737 0 1.375-.398 1.772-1.097zM125.881 38.867c-.977 0-1.979-.46-2.244-1.338l.832-.327c.277.639.783.857 1.375.857.604 0 1.18-.314 1.18-.94 0-.314-.215-.58-.761-.7l-1.014-.227c-.795-.17-1.4-.617-1.4-1.557 0-1.134.965-1.677 1.967-1.677.915 0 1.859.447 2.111 1.325l-.832.327a1.37 1.37 0 0 0-1.279-.844c-.555 0-1.036.314-1.036.869 0 .265.194.613.543.687l1.023.228c.869.195 1.628.543 1.628 1.594.006 1.168-1.033 1.723-2.093 1.723"
    ></path>
    <path
        stroke="#6D6E71"
        stroke-linecap="round"
        stroke-miterlimit="10"
        stroke-width="0.553"
        d="M136.586 9.627v31.17"
    ></path>
    <path
        fill="#6D6E71"
        d="M147.483 12.373v1.3h2.065v.673h-2.065v1.636h-.795v-4.275h3.122v.666zM150.223 14.352c0-.977.733-1.667 1.735-1.667 1.014 0 1.742.69 1.742 1.667s-.728 1.674-1.742 1.674c-1.002 0-1.735-.697-1.735-1.674m2.706 0c0-.623-.416-1.02-.971-1.02-.549 0-.965.397-.965 1.02s.416 1.02.965 1.02c.555 0 .971-.397.971-1.02M156.39 12.685v.727a1 1 0 0 0-.175-.019c-.58 0-.947.343-.947 1.008v1.582h-.764v-3.261h.727v.474c.219-.339.617-.511 1.159-.511M162.569 14.115v1.868h-.764v-1.77c0-.579-.268-.86-.734-.86-.499 0-.848.33-.848.978v1.655h-.764v-1.77c0-.579-.268-.86-.734-.86-.508 0-.847.33-.847.978v1.655h-.765v-3.267h.728v.416c.243-.293.622-.453 1.069-.453.478 0 .873.175 1.101.542.262-.336.703-.542 1.22-.542.789 0 1.338.447 1.338 1.43M166.709 14.596h-2.562c.093.474.49.783 1.058.783.366 0 .653-.117.884-.355l.41.472c-.293.348-.752.53-1.313.53-1.094 0-1.803-.703-1.803-1.674 0-.97.715-1.667 1.686-1.667.952 0 1.649.665 1.649 1.686a2 2 0 0 1-.009.225m-2.568-.506h1.853c-.062-.472-.423-.795-.922-.795-.496 0-.857.317-.931.795M169.414 12.685v.727a1 1 0 0 0-.176-.019c-.579 0-.946.343-.946 1.008v1.582h-.765v-3.261h.728v.474c.219-.339.616-.511 1.159-.511M170.137 11.45h.764v4.531h-.764zM175.03 12.72l-1.529 3.524c-.299.74-.715.965-1.258.965-.323 0-.665-.111-.872-.3l.305-.56a.82.82 0 0 0 .561.225c.268 0 .429-.13.574-.453l.055-.13-1.424-3.273h.795l1.027 2.41 1.032-2.41h.734z"
    ></path>
    <path
        fill="#0075BB"
        fill-rule="evenodd"
        d="m174.858 20.612-1.19 1.532s-.092.102-.416-.133c0 0-2.814-2.083-7.225-1.504 0 0-4.343.657-5.012 4.732-.678 4.075 4.241 5.45 5.271 5.76 0 0 1.436.337 4.531.898 3.088.554 3.579 2.44 3.258 3.637-.364 1.356-1.359 2.802-5.518 2.509 0 0-4.968.037-6.528-5.706h-1.353v6.797h1.159l1.575-1.637s.071-.08.265.053c.2.138 2.216 1.627 5.881 1.658 3.659.022 6.822-1.664 7.518-4.587 0 0 .9-3.883-3.48-5.597 0 0-1.97-.814-5.092-1.283-3.135-.462-4.531-1.673-4.661-2.823-.138-1.14.663-3.314 4.125-3.425 3.061-.101 6.223 2.728 6.759 5.308l1.317-.006v-6.183z"
        clip-rule="evenodd"
    ></path>
    <path
        fill="#42AF55"
        fill-rule="evenodd"
        d="m215.983 31.873 1.088-.006-.496 7.043h-18.177v-1.409h2.028s1.014.062 1.008-.915l-.016-13.55c.022-1.008-.884-.94-.884-.94l-2.139-.01v-1.288h10.578v1.288l-2.136.01s-.909-.068-.881.94l-.016 13.547c-.012.977 1.014.915 1.014.915h2.022s1.372.016 2.007-.055c.629-.077 2.075-.056 3.184-1.698 1.039-1.542 1.816-3.872 1.816-3.872"
        clip-rule="evenodd"
    ></path>
    <path
        fill="#E82630"
        fill-rule="evenodd"
        d="M184.753 23.492c-.015-1.437.977-1.372 1.205-1.412.235-.034 1.594 0 1.594 0 2.182.028 2.447.388 2.867.983.934 1.295.853 4.069-.361 5.049-1.211.983-5.308.792-5.308.792s.006-3.973.003-5.413m13.036 11.034h-1.347s.255 2.325-.811 2.365c-1.07.028-1.433-2.149-1.634-3.08-.194-.946-1.211-3.43-4.796-4.155 0 0 2.771-.108 4.901-1.297 1.973-1.104 1.449-3.98 1.199-4.553 0 0-.943-3.237-8.205-3.215l-9.639-.022v1.523s.906 0 1.517.046c.604.037 1.282.037 1.279 1.464-.003 1.14-.022 8.727-.022 11.67-.003.269-.012.503-.021.688-.084 1.569-.648 1.593-1.172 1.67-.521.08-1.578.01-1.578.01l.009 1.214-.009.025h10.465v-1.24s-1.452.072-1.973-.009c-.521-.077-1.085-.101-1.165-1.67-.077-1.56-.028-5.965-.028-5.965s2.035-.101 2.876.373c.851.469 1.806 1.717 2.105 3.712.299 1.985.574 3.698 2.066 4.565 1.482.866 6.522 1.236 5.983-4.119"
        clip-rule="evenodd"
    ></path>
    <path
        fill="#6D6E71"
        fill-rule="evenodd"
        d="m153.151 30.724-.194-2.531.373-.188-1.982-5.095c-.289.033-.471-.167-.579-.432l-1.344-3.656-1.936.77 1.427 3.842-.197.493.373-.034c1.433.175 2.044 1.606 1.316 2.549-.237.308-.508.428-.925.583-.93.385-1.818.887-2.53 1.695-1.218 1.36-1.575 2.993-1.098 4.436.262.878.66 1.202 1.172 1.954.635.95-.09 1.79-.996 1.905l-.687.027.314 1.9 12.555.008.441-1.186s-6.393-.191-8.206-1.452c-1.248-.879-2.198-1.92-2.765-3.101-.656-1.316-.046-2.796.873-3.699.416-.422 1.026-.795 1.596-1.143l.392.68.37-.175 1.667 2.075z"
        clip-rule="evenodd"
    ></path>
    <path
        fill="#6D6E71"
        fill-rule="evenodd"
        d="M149.005 24.572c.533 0 .952.426.952.94 0 .521-.416.934-.952.934-.524 0-.962-.416-.962-.934 0-.514.435-.94.962-.94M150.609 35.4l7.118-2.29.021-1.153-7.132 2.256z"
        clip-rule="evenodd"
    ></path>
</svg>
