<svg width="200" height="200" viewBox="0 0 200 200" fill="none" xmlns="http://www.w3.org/2000/svg">
<rect width="200" height="200" rx="11.2546" fill="url(#paint0_linear_275_509)"/>
<path fill-rule="evenodd" clip-rule="evenodd" d="M129.365 72.9309C125.753 68.5534 121.099 65.1526 115.831 63.0401C109.359 60.1992 102.366 58.7382 95.2975 58.7501C85.6771 58.7501 76.405 62.3892 69.5392 68.9251C62.6596 75.4792 58.75 84.403 58.75 93.7667C58.75 104.597 64.69 112.833 71.9225 118.76V130.731L72.3946 131.685C74.1592 135.283 77.8808 137.689 81.0662 139.091C84.2975 140.517 88.1383 141.429 91.4062 141.218C97.1629 141.186 101.095 139.536 103.676 137.4C104.945 136.35 105.793 135.26 106.343 134.361C106.686 133.809 106.968 133.222 107.187 132.61L107.214 132.542L107.223 132.51V132.496L107.228 132.487L107.443 131.808V131.666C109.901 132.353 112.426 132.771 114.974 132.913C118.558 133.073 122.94 132.546 126.487 129.746C129.393 127.454 131.162 124.118 131.804 119.892C132.247 119.779 132.705 119.649 133.179 119.502C134.48 119.09 136.085 118.448 137.51 117.463C138.908 116.482 140.636 114.795 141.113 112.183C141.493 110.088 141.021 108.145 140.475 106.705C139.933 105.333 139.235 104.027 138.395 102.814C137.652 101.718 136.831 100.676 135.938 99.6976C134.893 97.3051 134.907 95.6367 134.93 92.6759C134.93 91.6676 134.939 90.508 134.907 89.1238V89.1147C134.753 83.3872 132.889 77.8368 129.553 73.1784L129.462 73.0501L129.365 72.9309ZM103.346 75.4517C100.522 73.4534 97.3692 73.2976 94.6696 74.0997C93.9683 74.3059 93.2946 74.8513 92.6483 75.4472L92.1075 75.9605C91.6629 76.3822 91.2367 76.7901 90.8333 77.0834C90.3843 76.7359 89.9572 76.3608 89.5546 75.9605L89.0138 75.4472C88.3721 74.8513 87.6938 74.3105 86.9971 74.1042C84.2975 73.3067 81.1442 73.4626 78.3254 75.4472C76.9258 76.4563 75.7765 77.7733 74.966 79.2965C74.1555 80.8198 73.7054 82.5088 73.6504 84.2334C73.4808 89.4905 76.2996 93.7897 79.3108 97.0713C81.5658 99.528 84.3204 101.801 86.5938 103.685C87.324 104.284 87.9901 104.842 88.5921 105.358L90.815 107.265L93.0517 105.376C93.6017 104.912 94.2036 104.414 94.8575 103.882C97.1858 101.971 100.037 99.6288 102.374 97.0759C105.385 93.7851 108.195 89.4767 108.012 84.2334C107.958 82.5096 107.509 80.8211 106.7 79.2979C105.891 77.7746 104.744 76.4619 103.346 75.4517ZM127.5 103.438C127.5 104.349 127.138 105.224 126.493 105.868C125.849 106.513 124.974 106.875 124.062 106.875C123.151 106.875 122.276 106.513 121.632 105.868C120.987 105.224 120.625 104.349 120.625 103.438C120.625 102.526 120.987 101.652 121.632 101.007C122.276 100.362 123.151 100 124.062 100C124.974 100 125.849 100.362 126.493 101.007C127.138 101.652 127.5 102.526 127.5 103.438Z" fill="white"/>
<defs>
<linearGradient id="paint0_linear_275_509" x1="183.655" y1="-4.37134e-06" x2="-29.1532" y2="117.821" gradientUnits="userSpaceOnUse">
<stop offset="0.035429" stop-color="#0E478E"/>
<stop offset="1" stop-color="#072142"/>
</linearGradient>
</defs>
</svg>
