<svg width="136" height="40" viewBox="0 0 136 40" fill="none" xmlns="http://www.w3.org/2000/svg">
<g clip-path="url(#clip0_1_275)">
<path fill-rule="evenodd" clip-rule="evenodd" d="M130.534 40H5.02244C2.25436 40 0 37.7456 0 35V5C0 2.24439 2.25436 0 5.02244 0H130.534C133.299 0 135.556 2.24439 135.556 5V35C135.556 37.7456 133.299 40 130.534 40Z" fill="black"/>
<path fill-rule="evenodd" clip-rule="evenodd" d="M130.534 0.800499C132.855 0.800499 134.756 2.68828 134.756 5V35C134.756 37.3117 132.868 39.1995 130.534 39.1995H5.02244C2.70075 39.1995 0.800499 37.3117 0.800499 35V5C0.800499 2.68828 2.68828 0.800499 5.02244 0.800499H130.534ZM130.534 0H5.02244C2.25436 0 0 2.25436 0 5V35C0 37.7556 2.25436 40 5.02244 40H130.534C133.299 40 135.556 37.7556 135.556 35V5C135.556 2.25436 133.299 0 130.534 0Z" fill="#A6A6A6"/>
<path d="M71.4115 13.2319C70.5062 13.2319 69.7431 12.9152 69.1397 12.2918C68.5411 11.6858 68.207 10.8504 68.2219 9.99751C68.2219 9.08728 68.5312 8.31671 69.1397 7.70574C69.7406 7.0823 70.5037 6.76559 71.409 6.76559C72.3042 6.76559 73.0673 7.0823 73.6808 7.70574C74.2893 8.33666 74.5985 9.10723 74.5985 9.99751C74.5885 10.9102 74.2793 11.6808 73.6808 12.2893C73.0798 12.9177 72.3167 13.2319 71.4115 13.2319ZM44.4763 13.2319C43.591 13.2319 42.8229 12.9202 42.1945 12.3042C41.5711 11.6908 41.2544 10.9152 41.2544 10C41.2544 9.08479 41.5711 8.30923 42.1945 7.69576C42.8105 7.0798 43.5786 6.76808 44.4763 6.76808C44.9152 6.76808 45.3416 6.85536 45.7506 7.03242C46.1521 7.20449 46.4788 7.4389 46.7207 7.72569L46.7805 7.79801L46.1047 8.46135L46.0349 8.37905C45.6534 7.92519 45.1421 7.70324 44.4663 7.70324C43.8628 7.70324 43.3367 7.91771 42.9027 8.34165C42.4663 8.76808 42.2444 9.32668 42.2444 10.0025C42.2444 10.6783 42.4663 11.2369 42.9027 11.6633C43.3367 12.0873 43.8628 12.3017 44.4663 12.3017C45.1097 12.3017 45.6509 12.0873 46.0723 11.6633C46.3217 11.414 46.4763 11.0648 46.5312 10.6234H44.3641V9.69077H47.4613L47.4738 9.77556C47.4963 9.93267 47.5187 10.0948 47.5187 10.2444C47.5187 11.1047 47.2594 11.8005 46.7456 12.3142C46.1621 12.9227 45.399 13.2319 44.4763 13.2319ZM80.2893 13.0998H79.3342L76.409 8.41895L76.4339 9.26185V13.0973H75.4788V6.90025H76.5686L76.5985 6.94763L79.3491 11.3566L79.3242 10.5162V6.90025H80.2893V13.0998ZM64.2344 13.0998H63.2668V7.83292H61.5885V6.90025H65.9102V7.83292H64.2319V13.0998H64.2344ZM60.8005 13.0998H59.8354V6.90025H60.8005V13.0998ZM55.3766 13.0998H54.4115V7.83292H52.7332V6.90025H57.0549V7.83292H55.3766V13.0998ZM52.1222 13.0898H48.4214V6.90025H52.1222V7.83292H49.389V9.53367H51.8554V10.4564H49.389V12.1571H52.1222V13.0898ZM69.8479 11.6509C70.2793 12.0823 70.803 12.2993 71.4115 12.2993C72.0374 12.2993 72.5486 12.0873 72.9751 11.6509C73.399 11.2269 73.6135 10.6708 73.6135 10C73.6135 9.32918 73.399 8.77057 72.9776 8.34913C72.5461 7.91771 72.0199 7.70075 71.414 7.70075C70.788 7.70075 70.2768 7.91272 69.8529 8.34913C69.4289 8.77307 69.2145 9.32918 69.2145 10C69.2145 10.6708 69.4264 11.2294 69.8479 11.6509Z" fill="white"/>
<path fill-rule="evenodd" clip-rule="evenodd" d="M68.1322 21.7556C65.7756 21.7556 63.8653 23.5436 63.8653 26.01C63.8653 28.4539 65.788 30.2643 68.1322 30.2643C70.4888 30.2643 72.399 28.4638 72.399 26.01C72.399 23.5436 70.4888 21.7556 68.1322 21.7556ZM68.1322 28.5786C66.8429 28.5786 65.7332 27.5112 65.7332 26C65.7332 24.4663 66.8454 23.4214 68.1322 23.4214C69.4214 23.4214 70.5312 24.4663 70.5312 26C70.5337 27.5212 69.4214 28.5786 68.1322 28.5786ZM58.8229 21.7556C56.4663 21.7556 54.5561 23.5436 54.5561 26.01C54.5561 28.4539 56.4788 30.2643 58.8229 30.2643C61.1796 30.2643 63.0898 28.4638 63.0898 26.01C63.0898 23.5436 61.1771 21.7556 58.8229 21.7556ZM58.8229 28.5786C57.5337 28.5786 56.4239 27.5112 56.4239 26C56.4239 24.4663 57.5362 23.4214 58.8229 23.4214C60.1122 23.4214 61.2219 24.4663 61.2219 26C61.2219 27.5212 60.1122 28.5786 58.8229 28.5786ZM47.7456 23.0549V24.8554H52.0673C51.9352 25.8653 51.601 26.611 51.0898 27.1222C50.4564 27.7556 49.4788 28.4439 47.7556 28.4439C45.0997 28.4439 43.0224 26.2992 43.0224 23.6434C43.0224 20.9875 45.0997 18.8429 47.7556 18.8429C49.1895 18.8429 50.2344 19.409 51.01 20.1322L52.2868 18.8554C51.2095 17.8229 49.7756 17.0324 47.7656 17.0324C44.1222 17.0324 41.0648 20 41.0648 23.6334C41.0648 27.2768 44.1197 30.2344 47.7656 30.2344C49.7332 30.2344 51.2095 29.591 52.3766 28.3791C53.5661 27.1895 53.9426 25.5112 53.9426 24.1571C53.9426 23.7357 53.9102 23.3566 53.8429 23.0349H47.7431C47.7456 23.0324 47.7456 23.0549 47.7456 23.0549ZM93.0549 24.4564C92.6983 23.5012 91.6209 21.7456 89.4115 21.7456C87.2219 21.7456 85.4015 23.4688 85.4015 26C85.4015 28.389 87.202 30.2544 89.6234 30.2544C91.5686 30.2544 92.7007 29.0648 93.1671 28.3666L91.7232 27.399C91.2444 28.1097 90.5786 28.5761 89.6334 28.5761C88.6783 28.5761 88.01 28.1421 87.5661 27.2868L93.2544 24.9302C93.2544 24.9327 93.0549 24.4564 93.0549 24.4564ZM87.2544 25.8778C87.2095 24.2344 88.5312 23.399 89.4763 23.399C90.2219 23.399 90.8429 23.7656 91.0549 24.2993L87.2544 25.8778ZM82.6334 30H84.5012V17.5012H82.6334V30ZM79.5661 22.7007H79.4987C79.0773 22.1995 78.2768 21.7456 77.2544 21.7456C75.1322 21.7456 73.1771 23.6135 73.1771 26.0125C73.1771 28.4015 75.1222 30.2469 77.2544 30.2469C78.2643 30.2469 79.0773 29.7905 79.4987 29.2793H79.5661V29.8903C79.5661 31.5137 78.6982 32.389 77.2992 32.389C76.1546 32.389 75.4439 31.5661 75.1546 30.8778L73.5312 31.5561C73.9975 32.6783 75.2419 34.0673 77.2968 34.0673C79.4863 34.0673 81.3416 32.7781 81.3416 29.6334V22H79.5761V22.7007C79.5786 22.7007 79.5661 22.7007 79.5661 22.7007ZM77.4214 28.5786C76.1322 28.5786 75.0549 27.5012 75.0549 26.0125C75.0549 24.5112 76.1322 23.4239 77.4214 23.4239C78.6983 23.4239 79.6883 24.5237 79.6883 26.0125C79.7007 27.5012 78.7007 28.5786 77.4214 28.5786ZM101.8 17.5012H97.3342V30H99.202V25.2668H101.803C103.87 25.2668 105.903 23.7681 105.903 21.389C105.903 19.01 103.878 17.5012 101.8 17.5012ZM101.855 23.5212H99.1995V19.2319H101.855C103.254 19.2319 104.045 20.3865 104.045 21.3766C104.045 22.3566 103.244 23.5212 101.855 23.5212ZM113.389 21.7332C112.032 21.7332 110.633 22.3342 110.055 23.6434L111.711 24.3317C112.067 23.6434 112.721 23.409 113.411 23.409C114.379 23.409 115.357 23.9875 115.379 25.0199V25.1521C115.045 24.9626 114.312 24.6733 113.434 24.6733C111.646 24.6733 109.833 25.6509 109.833 27.4838C109.833 29.1621 111.299 30.2394 112.933 30.2394C114.187 30.2394 114.878 29.6733 115.309 29.0175H115.377V29.985H117.177V25.197C117.177 22.9676 115.521 21.7332 113.389 21.7332ZM113.155 28.5786C112.544 28.5786 111.688 28.2793 111.688 27.5112C111.688 26.5436 112.756 26.1771 113.666 26.1771C114.489 26.1771 114.878 26.3541 115.367 26.5985C115.232 27.7207 114.284 28.5686 113.155 28.5786ZM123.746 22L121.601 27.4214H121.534L119.312 22H117.302L120.636 29.5786L118.736 33.7905H120.681L125.81 22H123.746ZM106.933 30H108.8V17.5012H106.933V30Z" fill="white"/>
<path d="M20.8889 19.2885L10.0963 30.5957C10.2202 31.0234 10.4395 31.4174 10.7378 31.748C11.036 32.0786 11.4053 32.3373 11.818 32.5045C12.2306 32.6718 12.6758 32.7432 13.1201 32.7135C13.5644 32.6837 13.9961 32.5536 14.3828 32.3328L26.5264 25.4166L20.8889 19.2885Z" fill="#EA4335"/>
<path d="M31.8025 17.3663L26.5509 14.3585L20.64 19.5457L26.5751 25.4004L31.7864 22.4248C32.1192 22.2518 32.4146 22.0148 32.6555 21.7273C32.8965 21.4397 33.0782 21.1075 33.1903 20.7495C33.3024 20.3915 33.3426 20.0149 33.3087 19.6413C33.2748 19.2678 33.1674 18.9046 32.9927 18.5726C32.7201 18.0591 32.2999 17.6389 31.7864 17.3663H31.8025Z" fill="#FBBC04"/>
<path d="M10.0965 9.13919C10.0323 9.38057 9.99985 9.62929 10 9.87907V29.8558C9.99985 30.1055 10.0323 30.3543 10.0965 30.5956L21.259 19.5779L10.0965 9.13919Z" fill="#4285F4"/>
<path d="M20.9693 19.8674L26.5506 14.3586L14.423 7.41016C13.9666 7.1433 13.4478 7.00181 12.9191 7.00001C12.2805 6.99874 11.6591 7.20631 11.1495 7.59107C10.6398 7.97583 10.27 8.51668 10.0963 9.13118L20.9693 19.8674Z" fill="#34A853"/>
</g>
<defs>
<clipPath id="clip0_1_275">
<rect width="135.556" height="40" fill="white"/>
</clipPath>
</defs>
</svg>
