<svg width="17" height="19" viewBox="0 0 17 19" fill="none" xmlns="http://www.w3.org/2000/svg">
<g clip-path="url(#clip0_95_681)">
<path d="M7.69877 8.66699L0.0783071 16.5408C0.161178 16.8425 0.311926 17.1212 0.519028 17.3557C0.726131 17.5902 0.984104 17.7742 1.27323 17.8937C1.56235 18.0132 1.87497 18.0651 2.18719 18.0452C2.49941 18.0254 2.80296 17.9344 3.07464 17.7793L11.6209 12.9902L7.69877 8.66699Z" fill="#EA4335"/>
<path d="M15.3582 7.37275L11.6917 5.23871L7.52287 8.84607L11.6548 12.979L15.3224 10.9185C15.6472 10.7513 15.92 10.4984 16.1113 10.1872C16.3026 9.87594 16.4051 9.5183 16.4076 9.15299C16.4102 8.78769 16.3127 8.42867 16.1257 8.11483C15.9387 7.80099 15.6694 7.54431 15.347 7.3726L15.3582 7.37275Z" fill="#FBBC04"/>
<path d="M0.182688 1.5001C0.135813 1.66885 0.111839 1.84313 0.111412 2.01827L0.0142543 16.0217C0.0134909 16.1968 0.0350239 16.3713 0.0783337 16.5409L7.95674 8.87181L0.182688 1.5001Z" fill="#4285F4"/>
<path d="M7.75226 9.07335L11.6915 5.23881L3.224 0.30904C2.90545 0.119506 2.54235 0.0177797 2.17169 0.0142206C1.25185 0.00605084 0.438924 0.610949 0.182628 1.49446L7.75226 9.07335Z" fill="#34A853"/>
</g>
<defs>
<clipPath id="clip0_95_681">
<rect width="16.3453" height="18.0692" fill="white" transform="translate(0.125366) rotate(0.397517)"/>
</clipPath>
</defs>
</svg>
