<svg width="200" height="200" viewBox="0 0 200 200" fill="none" xmlns="http://www.w3.org/2000/svg">
<rect width="200" height="200" rx="11.2546" fill="url(#paint0_linear_275_524)"/>
<path d="M128.48 92C124.343 99.3861 118.562 105.721 111.584 110.514C104.606 115.307 96.6182 118.43 88.2396 119.64H86.4396C83.0536 119.633 79.7964 118.341 77.3266 116.025C74.8568 113.708 73.3587 110.541 73.1352 107.162C72.9116 103.783 73.9793 100.446 76.1224 97.8244C78.2654 95.2028 81.324 93.4928 84.6796 93.04C96.3196 91.48 103.44 81.04 107.32 72.8C107.475 72.4271 107.704 72.0893 107.993 71.807C108.281 71.5247 108.624 71.3036 109.001 71.1571C109.377 71.0105 109.779 70.9415 110.183 70.9541C110.587 70.9667 110.984 71.0607 111.35 71.2305C111.717 71.4003 112.045 71.6423 112.316 71.9421C112.587 72.2419 112.794 72.5933 112.926 72.9752C113.057 73.3571 113.11 73.7616 113.082 74.1645C113.053 74.5675 112.944 74.9605 112.76 75.32C108.24 85.16 99.9996 97.2 85.4796 99.12C83.6273 99.4404 81.9678 100.457 80.8415 101.962C79.7151 103.467 79.2073 105.346 79.4222 107.214C79.6371 109.081 80.5584 110.796 81.9971 112.005C83.4358 113.215 85.283 113.829 87.1596 113.72C121.76 109.08 132.64 71.52 136 55H72.1996C70.6903 56.145 69.3445 57.4907 68.1996 59C64.6396 65 70.5196 72.96 78.2396 75.8C72.8967 78.6735 68.4807 83.0065 65.5064 88.2939C62.5321 93.5813 61.122 99.6053 61.4407 105.663C61.7593 111.722 63.7935 117.565 67.306 122.511C70.8185 127.457 75.6647 131.303 81.2796 133.6V144.96H137.8C137.8 120.96 129.8 118.48 128.12 102.68C127.817 99.1183 127.938 95.5332 128.48 92Z" fill="white"/>
<defs>
<linearGradient id="paint0_linear_275_524" x1="183.655" y1="-4.37134e-06" x2="-29.1532" y2="117.821" gradientUnits="userSpaceOnUse">
<stop offset="0.035429" stop-color="#0E478E"/>
<stop offset="1" stop-color="#072142"/>
</linearGradient>
</defs>
</svg>
