<svg width="216" height="216" viewBox="0 0 216 216" fill="none" xmlns="http://www.w3.org/2000/svg">
<g clip-path="url(#clip0_222_98)">
<path fill-rule="evenodd" clip-rule="evenodd" d="M38.5712 34.7143H56.5147C59.1838 47.9211 70.8633 57.8571 84.857 57.8571H131.143C145.136 57.8571 156.816 47.9211 159.5 34.7143H177.428C180.622 34.7143 183.214 37.3063 183.214 40.5V190.929C183.214 192.463 182.605 193.935 181.52 195.02C180.434 196.105 178.963 196.714 177.428 196.714H38.5712C37.0368 196.714 35.5652 196.105 34.4801 195.02C33.3951 193.935 32.7855 192.463 32.7855 190.929V40.5C32.7855 37.3063 35.3775 34.7143 38.5712 34.7143ZM177.428 15.4286H156.739C151.879 6.24857 142.236 0 131.143 0H84.857C73.7484 0 64.121 6.24857 59.261 15.4286H38.5712C24.7318 15.4286 13.4998 26.6606 13.4998 40.5V190.929C13.4998 204.783 24.7318 216 38.5712 216H177.428C191.283 216 202.5 204.783 202.5 190.929V40.5C202.5 26.6606 191.283 15.4286 177.428 15.4286ZM89.9792 88.5446C89.9792 85.4434 92.4941 82.9286 95.5953 82.9286H120.404C123.506 82.9286 126.02 85.4434 126.02 88.5446V109.265H146.741C149.842 109.265 152.357 111.78 152.357 114.881V139.69C152.357 141.18 151.765 142.608 150.712 143.661C149.659 144.715 148.23 145.306 146.741 145.306H126.02V166.027C126.02 167.516 125.429 168.945 124.376 169.998C123.322 171.051 121.894 171.643 120.404 171.643H95.5953C94.1058 171.643 92.6773 171.051 91.6241 169.998C90.5709 168.945 89.9792 167.516 89.9792 166.027V145.306H69.2587C68.5212 145.306 67.7909 145.161 67.1095 144.879C66.4282 144.597 65.8091 144.183 65.2876 143.661C64.7661 143.14 64.3524 142.521 64.0702 141.839C63.7879 141.158 63.6427 140.428 63.6427 139.69V114.881C63.6427 111.78 66.1575 109.265 69.2587 109.265H89.9792V88.5446Z" fill="#1E1E1E"/>
</g>
<defs>
<clipPath id="clip0_222_98">
<rect width="216" height="216" fill="white"/>
</clipPath>
</defs>
</svg>
