<svg width="200" height="200" viewBox="0 0 200 200" fill="none" xmlns="http://www.w3.org/2000/svg">
<rect width="200" height="200" rx="11.2546" fill="url(#paint0_linear_275_515)"/>
<path fill-rule="evenodd" clip-rule="evenodd" d="M97.0248 57.625H81.5059V58.6787C81.4923 64.8826 81.4832 70.8617 84.7986 76.4366C87.1058 80.3129 90.537 83.0356 93.9955 85.7811C94.5042 86.1822 95.0113 86.5865 95.517 86.9937C102.375 92.5277 98.083 101.286 90.8663 103.344C88.6341 103.98 86.5267 104.452 84.5466 104.892C76.719 106.636 70.883 107.935 66.9976 117.434C65.9687 119.945 65.4388 122.632 65.4375 125.346V139.375H80.9405V124.737C80.9405 120.72 85.4844 118.265 89.0019 119.998C98.217 124.535 109.253 125.979 119.136 122.146C125.808 119.56 130.295 114.673 133.93 108.732C139.237 100.058 139.449 88.9739 134.464 80.1108C130.097 72.3423 124.023 64.7282 114.188 64.7282C112.208 64.7282 110.078 65.5002 107.977 66.2564C104.28 67.5962 100.676 68.8974 98.1443 65.8976C96.7205 64.215 96.8499 61.6603 96.9635 59.3917C96.9953 58.774 97.0271 58.1768 97.0248 57.625ZM129.377 98.0912C132.037 99.7603 133.374 103.094 132.618 105.867C135.222 109.109 121.209 116.726 113.452 120.943C111.59 121.953 110.087 122.768 109.262 123.282C108.827 122.582 108.434 121.856 108.086 121.108C105.266 120.559 102.868 117.884 102.55 114.759C102.232 111.634 104.101 109.141 106.835 108.832C107.214 107.416 107.81 106.067 108.599 104.831C107.269 101.97 107.934 98.7225 110.275 97.2692C112.616 95.8159 115.82 96.6561 117.796 99.1154C119.254 98.9547 120.727 99.019 122.165 99.3061C123.653 96.9922 126.718 96.4222 129.377 98.0912Z" fill="white"/>
<path fill-rule="evenodd" clip-rule="evenodd" d="M133.93 108.732C139.237 100.058 139.449 88.9739 134.464 80.1108C130.097 72.3423 124.023 64.7282 114.188 64.7282C112.208 64.7282 110.078 65.5002 107.977 66.2564C104.28 67.5962 100.676 68.8974 98.1443 65.8976C97.2882 64.8849 96.993 63.5587 96.9181 62.1667C96.8727 61.2447 96.9181 60.2955 96.9635 59.3917C96.9982 58.8034 97.0187 58.2143 97.0248 57.625H81.5082V58.6787C81.5052 59.3781 81.5052 60.0745 81.5082 60.7678C81.5082 61.2356 81.5127 61.7019 81.5218 62.1667C81.6104 67.1262 82.1122 71.9154 84.8032 76.4366C87.1081 80.3129 90.5393 83.0356 94 85.7811C94.5072 86.1822 95.0128 86.5865 95.517 86.9937C102.377 92.5277 98.083 101.286 90.8686 103.344C88.6363 103.98 86.529 104.452 84.5488 104.892C76.7213 106.636 70.8852 107.935 66.9998 117.434C65.9702 119.945 65.4395 122.632 65.4375 125.346V139.375H80.9405V124.737C80.9405 120.72 85.4844 118.265 89.0019 119.998C98.217 124.535 109.253 125.979 119.136 122.146C125.808 119.56 130.295 114.673 133.93 108.732ZM76.3988 134.833V124.737C76.3988 116.926 84.869 112.902 91.0071 115.924C99.3524 120.032 109.049 121.188 117.496 117.913C122.894 115.82 126.709 111.832 130.054 106.362C134.505 99.0881 134.682 89.7618 130.506 82.3362C126.196 74.6699 121.28 69.2698 114.188 69.2698C113.563 69.2698 112.684 69.447 111.349 69.8875C110.766 70.0782 110.177 70.2917 109.517 70.5301L109.296 70.6096C108.577 70.8708 107.768 71.1592 106.951 71.4135C105.384 71.9017 103.326 72.4127 101.16 72.2242C98.7643 72.013 96.4821 70.9684 94.6745 68.8293C92.801 66.6107 92.4445 63.9697 92.3741 62.1667H86.0703C86.1611 66.84 86.5994 70.5801 88.7045 74.1135C90.5529 77.2246 93.2756 79.3932 96.7886 82.1977C97.2973 82.6004 97.8234 83.0205 98.3669 83.458C103.333 87.466 104.498 93.0818 102.75 97.9959C101.108 102.599 97.0452 106.305 92.113 107.71C89.7377 108.389 87.4714 108.894 85.4844 109.336L84.156 109.632C81.7943 110.17 79.9413 110.649 78.3381 111.31C75.5336 112.468 73.1947 114.278 71.2009 119.153C70.3953 121.118 69.9803 123.222 69.9792 125.346V134.833H76.3988Z" fill="white"/>
<defs>
<linearGradient id="paint0_linear_275_515" x1="183.655" y1="-4.37134e-06" x2="-29.1532" y2="117.821" gradientUnits="userSpaceOnUse">
<stop offset="0.035429" stop-color="#0E478E"/>
<stop offset="1" stop-color="#072142"/>
</linearGradient>
</defs>
</svg>
