<svg width="205" height="209" viewBox="0 0 205 209" fill="none" xmlns="http://www.w3.org/2000/svg">
<path fill-rule="evenodd" clip-rule="evenodd" d="M185.417 85.2085C182.188 52.0835 162.604 0 102.084 0C41.5628 0 21.9793 52.0835 18.7503 85.2085C7.42213 89.5078 -0.0500406 100.384 0.00025232 112.5V127.083C0.00025232 143.192 13.0588 156.25 29.1668 156.25C45.2752 156.25 58.3337 143.191 58.3337 127.083V112.5C58.281 100.645 51.0838 89.9927 40.1043 85.521C42.1878 66.354 52.3962 20.8335 102.084 20.8335C151.771 20.8335 161.875 66.354 163.959 85.521C153.002 90.0024 145.841 100.662 145.834 112.5V127.083C145.856 132.572 147.421 137.943 150.349 142.584C153.278 147.226 157.452 150.951 162.396 153.333C158.021 161.562 146.875 172.709 119.479 176.042C114.003 167.726 103.408 164.448 94.1921 168.218C84.9768 171.987 79.7166 181.751 81.6384 191.521C83.5603 201.291 92.1267 208.334 102.084 208.334C105.942 208.312 109.718 207.219 112.992 205.178C116.266 203.136 118.908 200.226 120.625 196.771C165.313 191.667 179.584 168.646 184.063 155.104C196.18 151.179 204.33 139.82 204.167 127.083V112.5C204.217 100.384 196.745 89.5078 185.417 85.2085ZM37.5003 127.083C37.5003 131.686 33.7693 135.417 29.1668 135.417C24.5642 135.417 20.8337 131.686 20.8337 127.083V112.5C20.8253 111.4 21.0347 110.31 21.4497 109.291C21.8647 108.273 22.4772 107.347 23.2518 106.566C24.0265 105.786 24.948 105.166 25.9632 104.743C26.9784 104.32 28.0673 104.103 29.167 104.103C30.2667 104.103 31.3556 104.32 32.3708 104.743C33.386 105.166 34.3075 105.786 35.0822 106.566C35.8568 107.347 36.4693 108.273 36.8843 109.291C37.2993 110.31 37.5087 111.4 37.5003 112.5V127.083ZM166.667 112.5C166.667 107.897 170.398 104.167 175 104.167C179.603 104.167 183.334 107.897 183.334 112.5V127.083C183.334 131.686 179.603 135.417 175 135.417C170.398 135.417 166.667 131.686 166.667 127.083V112.5Z" fill="#1E1E1E"/>
</svg>
