<svg width="13" height="17" viewBox="0 0 13 17" fill="none" xmlns="http://www.w3.org/2000/svg">
<path d="M5.6875 10.4203V13C5.6875 13.2302 5.7655 13.4233 5.9215 13.5793C6.0775 13.7353 6.27033 13.813 6.5 13.8125C6.72967 13.812 6.92277 13.734 7.07931 13.5785C7.23585 13.423 7.31358 13.2302 7.3125 13V10.4203L8.04375 11.1516C8.125 11.2328 8.21654 11.2937 8.31837 11.3344C8.42021 11.375 8.52177 11.3921 8.62306 11.3856C8.72435 11.3791 8.8224 11.3552 8.91719 11.3141C9.01198 11.2729 9.1 11.212 9.18125 11.1312C9.33021 10.9688 9.40821 10.7792 9.41525 10.5625C9.42229 10.3458 9.34429 10.1562 9.18125 9.99375L7.06875 7.88125C6.9875 7.8 6.89948 7.74258 6.80469 7.709C6.7099 7.67542 6.60833 7.65835 6.5 7.65781C6.39167 7.65727 6.2901 7.67433 6.19531 7.709C6.10052 7.74367 6.0125 7.80108 5.93125 7.88125L3.81875 9.99375C3.65625 10.1562 3.57852 10.3458 3.58556 10.5625C3.5926 10.7792 3.6771 10.9688 3.83906 11.1312C4.00156 11.2802 4.19115 11.3582 4.40781 11.3652C4.62448 11.3723 4.81406 11.2943 4.97656 11.1312L5.6875 10.4203ZM1.625 16.25C1.17813 16.25 0.795708 16.091 0.47775 15.7731C0.159792 15.4551 0.000541667 15.0724 0 14.625V1.625C0 1.17813 0.15925 0.795708 0.47775 0.47775C0.79625 0.159792 1.17867 0.000541667 1.625 0H7.45469C7.67135 0 7.878 0.0406251 8.07463 0.121875C8.27125 0.203125 8.44377 0.318229 8.59219 0.467188L12.5328 4.40781C12.6818 4.55677 12.7969 4.72956 12.8781 4.92619C12.9594 5.12281 13 5.32919 13 5.54531V14.625C13 15.0719 12.841 15.4546 12.5231 15.7731C12.2051 16.0916 11.8224 16.2505 11.375 16.25H1.625ZM7.3125 4.875V1.625H1.625V14.625H11.375V5.6875H8.125C7.89479 5.6875 7.70196 5.6095 7.5465 5.4535C7.39104 5.2975 7.31304 5.10467 7.3125 4.875Z" fill="#1E1E1E"/>
</svg>
